<svg width="170" height="170" fill="none" xmlns="http://www.w3.org/2000/svg"><path d="M39.86 20.627c0 .793.568 1.473 1.363 1.473s1.363-.567 1.363-1.36c.114-2.947-.454-5.893-1.476-8.613-.795.453-1.59 1.02-2.499 1.586 1.022 2.154 1.363 4.534 1.25 6.914zm-7.949-1.36c.795 0 1.477-.68 1.477-1.474 0-.113 0-.226-.114-.34-.681.567-1.363 1.02-2.044 1.587.113 0 .227.113.34.113h.341v.114zM57.008 9.18c.227.113.454.227.795.227.454 0 .908-.227 1.25-.68.453-.68.226-1.587-.455-1.927-.681-.453-1.25-1.247-1.476-2.04-.909.34-1.817.68-2.612 1.02.34 1.36 1.249 2.607 2.498 3.4zm6.019-6.233c-.568.113-1.022.34-1.59.453.568.113 1.25 0 1.59-.453zM40.996 30.373c.568.34 1.25.454 1.93.454 1.817 0 3.52-1.02 4.543-2.267 1.363-1.7 1.703-3.853 2.158-5.553l1.249-5.894c.113-.793-.34-1.473-1.136-1.7-.795-.113-1.476.34-1.703 1.134l-1.25 5.893c-.34 1.473-.68 3.173-1.59 4.307-.68.906-2.043 1.586-2.952 1.02-.681-.34-1.59 0-1.93.68-.341.793 0 1.586.681 1.926zM13.4 45.787c.228.566.796.906 1.364.906.227 0 .34 0 .567-.113.682-.34 1.136-1.133.795-1.813-1.022-2.494-.795-5.554.568-7.82 1.363-2.38 3.861-3.967 6.587-4.307.227 0 .454 0 .795-.113 1.022-.114 2.157-.227 3.293-.907 1.022-.567 1.703-1.813 1.703-2.947 0-1.02-.34-1.813-1.135-2.38-.682-.453-1.59-.34-2.045.227-.454.68-.34 1.473.228 1.927 0 .113-.114.566-.341.68-.454.34-1.25.34-2.044.453-.227 0-.568 0-.795.113-1.022.114-2.044.454-3.066.907a78.154 78.154 0 00-7.154 9.86c-.341 1.813 0 3.627.68 5.327zm20.442-11.334c.113 0 .34 0 .454-.113l.568-.227c.795-.226 1.135-1.02.908-1.813-.227-.793-1.022-1.133-1.817-.907l-.567.227c-.795.227-1.136 1.02-.909 1.813.114.567.681 1.02 1.363 1.02zM10.675 49.64c-.795-.113-1.476.453-1.59 1.247L7.95 59.273c-.114.794.454 1.474 1.25 1.587h.226c.682 0 1.363-.567 1.363-1.247l1.136-8.386c0-.68-.455-1.474-1.25-1.587zm20.668 3.74h.341c.795-.227 1.25-1.02 1.022-1.7-.795-2.833-1.136-5.893-.908-8.84 0-.793-.568-1.473-1.363-1.473s-1.476.566-1.476 1.36a28.267 28.267 0 001.022 9.746c.113.454.681.907 1.362.907zM57.69 33.433c.113 0 .34 0 .454-.113l8.29-3.06a1.37 1.37 0 00.794-.793c.114-.34.114-.68 0-1.134l-.227-.453c-.227-.68-1.135-1.133-1.817-.793-.454.113-.68.453-.794.906l-7.268 2.72c-.682.227-1.136 1.134-.795 1.814.227.566.795.906 1.363.906zm-.455-15.186l6.246 3.74c.227.113.454.226.681.226.455 0 .909-.226 1.25-.68.454-.68.227-1.586-.455-1.926l-6.245-3.74c-.682-.454-1.59-.227-1.931.453-.454.68-.227 1.587.454 1.927zM74.496 2.04c.228.34.682.567 1.136.567.34 0 .568-.114.908-.34l2.612-2.04c-1.59.113-3.18.226-4.883.453-.113.453 0 .907.227 1.36zm-3.634 8.16c.341.34.682.68 1.023 1.133a10.108 10.108 0 011.703 3.287c.454 1.36.34 2.72-.227 3.4-.227.34-.795.68-1.25.68-.227 0-.567 0-.68-.227a1.442 1.442 0 00-2.045 0 1.434 1.434 0 000 2.04c.682.68 1.59 1.134 2.612 1.134h.34c1.364-.114 2.613-.794 3.408-1.927 1.022-1.473 1.249-3.627.567-5.893a12.083 12.083 0 00-2.27-4.307c-.342-.453-.682-.793-1.136-1.247-.568-.68-1.25-1.246-1.59-1.926-.454-.794-.568-1.927 0-2.38.568-.567.568-1.474.113-2.04-.568-.567-1.476-.567-2.044-.114-1.703 1.587-1.476 4.08-.454 5.78.454 1.134 1.25 1.927 1.93 2.607z" fill="#DAE2E8" fill-opacity=".7"/><path d="M47.469 32.187c-1.136 2.266-1.25 4.873-.454 7.026.908 2.494 3.18 4.307 5.678 4.534h.681c2.498 0 4.997-1.7 5.678-3.967.227-.793-.227-1.587-.908-1.813-.795-.227-1.59.226-1.817.906-.454 1.247-1.93 2.154-3.294 2.04-1.476-.113-2.839-1.246-3.406-2.833-.568-1.473-.455-3.287.34-4.873.682-1.474 1.93-2.834 3.634-3.967.682-.453.795-1.36.341-1.927-.454-.68-1.363-.793-1.93-.34-2.045 1.587-3.635 3.287-4.543 5.214zm-9.766 19.266c-.681.34-.909 1.247-.568 1.927.227.453.795.793 1.25.793.226 0 .453 0 .68-.226 3.067-1.7 5.11-4.987 5.11-8.5 0-1.7-.453-3.06-1.362-4.194-1.136-1.473-3.066-2.04-4.656-1.473-.795.227-1.135 1.02-.908 1.813.227.794 1.022 1.134 1.817.907.454-.113 1.135.113 1.59.567.567.68.68 1.7.68 2.38-.113 2.493-1.475 4.873-3.633 6.006zm-21.463 5.1c.227 0 .568.114.795.114 1.59 0 3.293-.907 4.315-2.38.795-1.247 1.25-2.72 1.363-4.76v-1.7c0-.907 0-1.7.113-2.494a10.56 10.56 0 011.704-4.42c.454-.68.34-1.473-.34-1.926-.682-.454-1.477-.34-1.931.34-1.136 1.7-1.931 3.626-2.158 5.666-.114.907-.114 1.927-.114 2.834v1.586c-.113 1.474-.34 2.607-.908 3.287-.568.793-1.476 1.247-2.271 1.133-.795-.113-1.477.34-1.704 1.134-.113.68.455 1.473 1.136 1.586zM6.7 74.12c2.953 0 5.906-1.587 7.496-4.193.454-.68.227-1.587-.454-1.927-.682-.453-1.59-.227-1.931.453-1.25 1.927-3.861 3.06-6.132 2.72-1.704-.34-3.294-1.473-4.088-3.06-.228 1.247-.455 2.38-.682 3.627 1.136 1.133 2.612 1.813 4.202 2.153.568.114 1.022.227 1.59.227zm16.24-17l-.34.34a1.434 1.434 0 000 2.04c.226.227.68.453 1.021.453.341 0 .682-.113 1.022-.453l.341-.34a1.434 1.434 0 000-2.04 1.441 1.441 0 00-2.044 0zm34.068-32.867v.114c0 .793.681 1.473 1.476 1.473.795 0 1.477-.68 1.477-1.473v-.114c0-.793-.682-1.473-1.477-1.473-.794 0-1.476.68-1.476 1.473zM80.856 9.407h.113c.682 0 1.25-.454 1.477-1.02.227-.68 0-1.36-.568-1.814-.227-.113-.454-.226-.681-.226-.228 0-.568 0-.795.113-.682.227-1.023.907-.909 1.7.114.567.681 1.133 1.363 1.247zM82.9 2.833c.34.68 1.249 1.02 1.93.68.682-.34 1.023-1.133.682-1.926 0-.114.113-.227.227-.34.227-.227.795-.34 1.476-.34 2.158 0 4.202.793 5.678 2.38.227.34.682.453 1.022.453.34 0 .682-.113.909-.34.567-.567.567-1.473.113-2.04-.34-.34-.681-.567-1.022-.907C91.076.113 88.124 0 85.057 0h-2.044c-.454.907-.454 2.04-.113 2.833zm.113 19.72c.227.114.341.114.568.114.568 0 1.136-.34 1.363-.907l4.315-10.767c.34-.68-.113-1.586-.795-1.813-.681-.34-1.59.113-1.817.793L82.332 20.74c-.34.68 0 1.587.681 1.813zm-10.22 4.874c-.795.226-1.136 1.02-.909 1.813l3.067 9.747c.227.566.795 1.02 1.362 1.02.114 0 .341 0 .455-.114.794-.226 1.135-1.02.908-1.813l-3.066-9.747c-.227-.68-1.022-1.133-1.817-.906zm-14.081 27.54c.227 1.246 1.135 2.38 2.27 2.946.569.227 1.136.454 1.704.454.454 0 .909-.114 1.363-.227.681-.34 1.022-1.133.681-1.813-.34-.68-1.135-1.02-1.817-.68-.227.113-.454 0-.568-.114-.454-.226-.794-.68-.794-1.02-.228-1.02.34-2.153.794-2.946.341-.567.682-1.02 1.136-1.587.454-.567.908-1.247 1.363-1.813 1.93-3.174 2.271-7.367.908-10.767-.34-.68-1.135-1.133-1.817-.793-.681.34-1.135 1.133-.795 1.813 1.022 2.72.795 5.893-.681 8.273-.34.567-.681 1.02-1.136 1.587-.454.567-.908 1.133-1.249 1.813-1.362 1.587-1.703 3.287-1.362 4.874zM49.74 47.26c-.795-.227-1.476.34-1.703 1.02l-2.044 8.727c-.227.793.34 1.473 1.022 1.7h.34c.682 0 1.25-.454 1.363-1.134l2.044-8.726c.227-.68-.227-1.474-1.022-1.587zm-6.019 18.36L32.82 59.84c-.682-.34-1.59-.113-1.93.567-.341.68-.114 1.586.567 1.926l10.902 5.78c.227.114.454.114.681.114.454 0 1.022-.227 1.25-.794.34-.566.113-1.36-.569-1.813z" fill="#DAE2E8" fill-opacity=".7"/><path d="M61.096 43.973l.34-.34a1.434 1.434 0 000-2.04 1.441 1.441 0 00-2.043 0l-.34.453a1.434 1.434 0 000 2.04c.226.227.68.34 1.021.34.34 0 .795-.226 1.022-.453zM83.24 32.3c.795 0 1.477-.68 1.477-1.473 0-.794-.682-1.474-1.477-1.474h-.227c-.794 0-1.476.68-1.476 1.474 0 .793.681 1.473 1.476 1.473h.227zm15.331-13.147c.227.454.682.68 1.25.68.226 0 .567-.113.794-.226.682-.454.909-1.247.455-1.927L94.483 7.253c-.454-.68-1.25-.906-1.93-.453-.682.453-.909 1.247-.455 1.927l6.473 10.426zm3.18-9.18c2.725.34 5.224 1.927 6.586 4.307.795 1.247 1.136 2.72 1.022 3.967-.113 1.926-1.476 3.853-3.179 4.76-.682.34-1.022 1.246-.682 1.926.227.454.795.794 1.25.794.227 0 .454 0 .567-.114a8.699 8.699 0 004.77-7.14c.113-1.926-.341-3.853-1.363-5.666-1.817-3.06-5.11-5.327-8.744-5.667-.795-.113-1.476.453-1.59 1.247a1.59 1.59 0 001.363 1.586zm-13.06 11.9c-1.022 2.154-1.022 4.647-.113 6.914.908 2.266 2.839 3.853 4.996 4.193.341 0 .682.113.909.113 2.271 0 4.315-1.36 5.11-3.4.227-.68-.113-1.586-.908-1.813-.682-.227-1.59.113-1.817.907-.34 1.02-1.704 1.586-2.84 1.473-1.248-.227-2.384-1.247-2.952-2.493-.568-1.474-.568-3.174.114-4.534.34-.68 0-1.586-.682-1.926-.567-.454-1.476-.114-1.817.566zM76.54 49.64c-.908-.34-1.816-.567-2.952-.567-1.476.114-2.725 1.134-3.066 2.494-.227.793.34 1.473 1.022 1.7.795.226 1.476-.34 1.703-1.02 0-.114.227-.227.568-.227.454 0 1.136.113 1.817.34 1.817.567 3.634 1.133 5.564 1.133h.114c2.385 0 4.543-.906 5.792-2.606 1.59-2.04 1.476-5.1-.228-6.687a1.441 1.441 0 00-2.044 0 1.434 1.434 0 000 2.04c.682.68.682 2.04 0 2.947-.68.906-2.044 1.473-3.633 1.473-1.477 0-2.953-.453-4.657-1.02zM52.125 65.393c-.681-.34-1.59-.113-1.93.567-.341.68-.114 1.587.567 1.927 1.704.906 3.52 1.473 5.224 1.473.795 0 1.476-.113 2.271-.34 2.84-.793 4.997-3.06 5.451-5.667.114-.793-.34-1.473-1.135-1.586-.795-.114-1.477.34-1.59 1.133-.227 1.587-1.59 2.947-3.407 3.4-1.59.453-3.634.113-5.451-.907zm-28.731 1.7c-.681.567-.681 1.36-.227 2.04 1.59 1.814 3.18 3.74 4.088 5.894.909 2.266.909 4.533-.113 6.12-.909 1.586-2.84 2.493-4.656 2.266-.795-.113-1.477.454-1.59 1.247-.114.793.454 1.473 1.249 1.587h.795c2.612 0 5.11-1.36 6.473-3.627 1.476-2.38 1.59-5.667.227-8.727-1.022-2.606-2.953-4.76-4.542-6.686-.227-.567-1.136-.567-1.704-.114zM2.5 81.827c.567.113 1.135.68 1.135 1.133-.114.793.567 1.473 1.249 1.587h.113c.682 0 1.363-.567 1.363-1.247.227-2.04-1.476-3.627-3.18-4.08-1.022-.34-2.044-.227-3.066-.113 0 .793-.113 1.813-.113 2.833.908-.227 1.703-.34 2.498-.113zm12.831-3.74v-.227c0-.793-.681-1.473-1.476-1.473-.795 0-1.476.68-1.476 1.473v.227c0 .793.681 1.473 1.476 1.473.795 0 1.476-.68 1.476-1.473zM118.104 13.94c1.249.567 2.612.793 4.088.793 2.498 0 4.996-.793 6.927-2.38v-.113c-.908-.567-1.817-1.02-2.725-1.587-2.158 1.247-4.884 1.587-7.268.567-2.499-1.02-4.316-3.4-4.77-6.12-.795-.227-1.703-.567-2.612-.907-.113.227-.227.454-.113.794.227 3.853 2.952 7.366 6.473 8.953zM33.842 69.133c.227-.226.454-.68.454-1.02 0-.34-.114-.793-.454-1.02a1.441 1.441 0 00-2.044 0c-.227.227-.455.68-.455 1.02 0 .34.114.794.455 1.02.227.227.681.454 1.022.454.454 0 .795-.114 1.022-.454zm1.59 4.194c-.795 0-1.363.68-1.363 1.473v.34c0 .793.681 1.36 1.363 1.36h.113c.795 0 1.363-.68 1.363-1.473v-.34c0-.794-.681-1.36-1.476-1.36zm34.408-29.58l-.567.226c-.795.227-1.136 1.02-.909 1.814.227.566.795.906 1.363.906.113 0 .34 0 .454-.113l.568-.227c.795-.226 1.136-1.02.908-1.813-.227-.68-1.022-1.02-1.817-.793zm22.826-2.154c.227 0 .568-.113.795-.226l.568-.34c.681-.454.795-1.36.34-1.927-.454-.68-1.362-.793-1.93-.34l-.568.34c-.681.453-.795 1.36-.34 1.927.227.34.68.566 1.135.566z" fill="#DAE2E8" fill-opacity=".7"/><path d="M105.953 18.36c-.227-.793-1.022-1.247-1.704-1.02l-.568.113c-.794.227-1.249 1.02-1.022 1.7.228.68.795 1.02 1.363 1.02h.341l.568-.113c.795-.227 1.249-1.02 1.022-1.7zm28.503 4.76h.114c.681 0 1.363-.567 1.363-1.247l.454-4.646c-.909-.68-1.817-1.247-2.726-1.927l-.567 6.233a1.59 1.59 0 001.362 1.587zm-20.441 6.573c.228 0 .341 0 .568-.113l10.221-4.08c.681-.34 1.135-1.133.795-1.813-.341-.68-1.136-1.134-1.817-.794l-10.221 4.08c-.681.34-1.135 1.134-.795 1.814.227.566.682.906 1.249.906zm-13.059 2.72a66.908 66.908 0 00-3.407 13.26c-.113.794.454 1.474 1.25 1.587h.226c.682 0 1.363-.567 1.363-1.247.568-4.306 1.704-8.613 3.18-12.58.227-.68-.114-1.586-.795-1.813-.681-.34-1.476.113-1.817.793zM90.054 52.247c-.795-.227-1.476.34-1.703 1.02-.34 1.586.34 3.4 1.703 4.533 1.25 1.02 2.84 1.473 3.861 1.7 1.022.227 1.93.34 2.84.34 1.248 0 2.384-.227 3.406-.68 2.271-1.02 3.861-3.173 4.202-5.553.113-.794-.454-1.474-1.249-1.587-.795-.113-1.477.453-1.59 1.247-.227 1.473-1.249 2.833-2.612 3.4-1.136.453-2.612.566-4.543.226-1.249-.226-2.044-.566-2.611-1.133-.568-.453-.909-1.247-.795-1.813.34-.794-.114-1.587-.909-1.7zm31.57-7.934c-1.59.68-3.634.227-4.77-1.02-.454-.453-.794-1.133-1.135-1.813-.341-.68-.682-1.36-1.249-2.04-1.25-1.587-3.066-2.607-4.997-2.833-.795-.114-1.476.453-1.59 1.246-.113.794.454 1.474 1.249 1.587 1.249.113 2.385.793 3.18 1.813.341.454.681 1.02 1.022 1.587.454.793.795 1.587 1.476 2.267 1.363 1.586 3.294 2.38 5.338 2.38.908 0 1.93-.227 2.839-.567 1.249-.567 2.157-1.473 2.498-2.493.568-1.474.114-3.174-1.136-3.967-.681-.453-1.589-.227-1.93.453-.454.68-.227 1.587.454 1.927.114 0 .114.34.114.567-.455.34-.795.68-1.363.906zm-1.931-14.393c-1.817 1.36-2.839 3.287-2.839 5.213 0 .794.682 1.36 1.363 1.36.795 0 1.363-.68 1.363-1.473 0-1.02.568-2.04 1.59-2.833 1.135-.794 2.725-1.134 4.088-.907 1.363.227 2.725 1.02 3.52 2.153.455.68 1.363.794 1.931.34.681-.453.795-1.36.34-1.926-1.249-1.814-3.293-2.947-5.45-3.287-1.931-.453-4.202.113-5.906 1.36zm20.668-2.493h.114c.795 0 1.476-.68 1.476-1.474 0-.793-.681-1.473-1.476-1.473h-.114c-.794 0-1.476.68-1.476 1.473 0 .794.682 1.474 1.476 1.474zm-13.173-6.573c.228.113.341.113.568.113.568 0 1.022-.227 1.477-.567.567-.566.794-1.246.567-2.04-.227-.793-1.022-1.133-1.817-.907-.454.114-.681.454-.908.794-.341.113-.681.453-.795.907-.227.68.227 1.473.908 1.7zM77.335 58.253c-.794-.113-1.476.34-1.703 1.134l-3.407 17.566c-.113.794.34 1.474 1.136 1.7h.227c.681 0 1.249-.453 1.363-1.133l3.406-17.567c.228-.793-.227-1.586-1.022-1.7zM66.888 69.587c.113-.794-.454-1.474-1.25-1.587-.794-.113-1.476.453-1.59 1.247-.113 1.7-1.021 3.286-2.384 4.42-1.363 1.02-3.18 1.473-4.883 1.246-.795-.113-1.476.34-1.59 1.134-.114.793.34 1.473 1.136 1.586.454.114 1.022.114 1.476.114 2.044 0 3.975-.68 5.565-1.814 1.93-1.473 3.293-3.853 3.52-6.346zm-21.69 7.933a10.126 10.126 0 004.77 6.233c.567.34 1.248.68 1.816.907.568.227 1.136.567 1.704.907.681.453 1.476 1.246 1.476 1.926a.982.982 0 01-.454.794c-.114.113-.227.113-.227.113-.795-.227-1.59.113-1.817.907-.227.566.227 1.36.908 1.586.34.114.681.114.909.114a3.09 3.09 0 001.93-.68c1.022-.68 1.59-1.927 1.59-3.174 0-1.586-1.136-3.173-2.839-4.306-.681-.454-1.363-.68-2.044-1.02a10.394 10.394 0 01-1.59-.794c-1.703-1.02-2.953-2.606-3.407-4.42a7.893 7.893 0 01.682-5.553c.34-.68.113-1.587-.568-1.927-.682-.34-1.59-.113-1.93.567-1.25 2.38-1.59 5.213-.91 7.82zm-6.814 12.693h.568c2.271-.226 4.315-1.926 4.883-4.08.227-.793-.227-1.586-1.022-1.7-.795-.226-1.59.227-1.703 1.02-.341 1.02-1.363 1.927-2.385 2.04-1.136.114-2.271-.566-2.726-1.473-.34-.68-1.249-1.02-1.93-.68-.681.34-1.022 1.247-.681 1.927.794 1.813 2.839 2.946 4.996 2.946zm-27.482-.453c1.477-1.133 3.067-3.287 2.272-5.553-.227-.794-1.022-1.134-1.817-.907-.795.227-1.136 1.02-.909 1.813.227.794-.568 1.814-1.362 2.494-2.499 1.926-6.473 1.926-9.085 0 0 1.133.113 2.266.113 3.4a11.45 11.45 0 004.43.906c2.27 0 4.542-.793 6.359-2.153zm-6.927 15.753c.228 0 .568-.113.795-.226.682-.454.909-1.247.455-1.927l-4.43-7.14c.341 2.493.796 5.1 1.363 7.48l.682 1.133c.113.454.568.68 1.135.68z" fill="#DAE2E8" fill-opacity=".7"/><path d="M145.812 33.433c-1.135 3.287-4.201 5.894-7.722 6.46-.795.114-1.362.114-1.59-.113v-.113c.568-.34.795-1.134.455-1.814-.341-.68-1.136-1.02-1.931-.68-.795.34-1.363 1.134-1.476 2.04-.114 1.02.341 2.154 1.022 2.72.681.567 1.59.907 2.725.907.341 0 .795 0 1.249-.113 4.429-.68 8.518-4.08 9.994-8.387.568-1.7.795-3.627.568-5.553-1.817-2.04-3.634-3.967-5.565-5.78.114.226.114.34.341.453 2.271 2.72 3.066 6.687 1.93 9.973zm-14.876 11.674c-.681-.34-1.59-.114-1.931.566-1.249 2.154-1.362 4.987-.34 7.254.34.68.681 1.246 1.022 1.813.454.68.795 1.247 1.022 1.927.454 1.586-.341 3.4-1.817 4.193-.682.34-1.022 1.247-.682 1.927.228.453.795.793 1.25.793.227 0 .454 0 .567-.113 2.726-1.36 4.202-4.647 3.294-7.48-.341-1.02-.795-1.814-1.249-2.607-.341-.453-.568-1.02-.795-1.473-.682-1.474-.568-3.287.227-4.76.34-.794.113-1.587-.568-2.04zm-25.097 4.42c-.227.68.114 1.586.795 1.813 2.044.68 4.088 1.473 5.564 2.833 1.704 1.587 2.499 4.08 2.158 6.347a1.412 1.412 0 001.136 1.587h.227c.681 0 1.249-.454 1.363-1.134.567-3.173-.682-6.573-3.067-8.84-1.93-1.813-4.428-2.72-6.586-3.513-.568-.227-1.363.113-1.59.907zm-21.576 20.4c1.362.34 2.725.226 3.974.113.795-.114 1.477-.114 2.158-.114 1.703.114 3.407.907 4.656 2.154 1.135 1.246 1.817 3.06 1.817 4.76 0 .793.568 1.473 1.363 1.473.794 0 1.362-.566 1.362-1.36 0-2.493-.908-4.873-2.612-6.687-1.703-1.813-4.088-2.946-6.473-3.06-.908 0-1.703 0-2.611.114-1.136.113-2.158.113-3.067 0-.795-.227-1.476.227-1.703 1.02-.114.68.34 1.473 1.136 1.587zm20.44-8.16c-.454.34-.681.906-.567 1.473.113.68.681 1.133 1.362 1.133h.114c.681 0 1.363-.453 1.476-1.246.114-.567-.227-1.134-.681-1.474-.454-.226-1.249-.226-1.704.114zm17.716-5.327v.227c0 .793.681 1.473 1.476 1.473.795 0 1.476-.68 1.476-1.473v-.227c0-.793-.681-1.473-1.476-1.473-.795 0-1.476.68-1.476 1.473zm18.397-7.027h.34a1.62 1.62 0 001.363-.68c.341-.453.454-1.133.114-1.7-.341-.68-1.249-1.02-1.931-.566h-.227c-.795.113-1.249.906-1.136 1.7.341.566.795 1.133 1.477 1.246zM96.64 89.307c3.067-.114 6.133-1.36 8.404-3.514.341-.34.568-.906.454-1.36-.113-.453-.454-.906-1.022-1.02l-1.022-.34c-.795-.226-1.59.227-1.817.907a.97.97 0 000 .793 9.077 9.077 0 01-5.11 1.587c-2.385.113-4.77-.793-6.7-2.267a1.46 1.46 0 00-2.044.227 1.454 1.454 0 00.227 2.04c2.271 1.927 5.224 2.947 8.176 2.947h.455zm-14.876-19.04c-1.93.34-3.52 2.04-3.86 4.193-.341 1.813.226 3.627.68 4.987.114.34.228.793.455 1.133.34 1.02.681 1.927.908 2.833.568 2.834-.908 6.007-3.407 7.594-.68.453-.908 1.246-.454 1.926.227.454.682.68 1.25.68.227 0 .454-.113.68-.226 3.521-2.154 5.452-6.46 4.77-10.427-.227-1.133-.681-2.267-1.022-3.287l-.34-1.02c-.341-1.02-.795-2.38-.568-3.513.113-.793.795-1.813 1.59-1.927.794-.113 1.249-.906 1.135-1.7-.227-.793-1.022-1.36-1.817-1.246zM67.229 91.12c-1.25-2.38-1.59-5.1-.909-7.707.227-.793-.227-1.586-1.022-1.7-.795-.226-1.59.227-1.703 1.02-.909 3.287-.455 6.8 1.135 9.747s4.316 5.327 7.495 6.46c.114 0 .34.113.455.113.567 0 1.135-.34 1.362-.906.227-.794-.113-1.587-.908-1.814-2.499-1.02-4.656-2.833-5.905-5.213zm-48.377 7.593c1.022-.68 2.384-.906 3.974-.566 1.59.34 3.066 1.133 4.543 1.926.681.34 1.59.114 1.93-.566.341-.68.114-1.587-.567-1.927-1.59-.793-3.294-1.7-5.338-2.153-2.385-.454-4.656-.114-6.246 1.133-2.044 1.473-2.839 4.307-1.817 6.46.228.453.795.793 1.25.793.227 0 .454 0 .567-.113.682-.34 1.022-1.247.682-1.927-.341-1.02.113-2.38 1.022-3.06zm19.418-3.286c-.68-.454-1.59-.227-1.93.453-.454.68-.227 1.587.454 1.927 2.385 1.473 5.224 2.266 8.063 2.266 2.498 0 4.997-.566 7.154-1.7.682-.34.909-1.246.568-1.926-.34-.68-1.249-.907-1.93-.567-3.748 1.927-8.63 1.813-12.378-.453zm-25.323-.794h.567c.795 0 1.477-.68 1.477-1.473s-.682-1.473-1.477-1.473h-.567c-.795 0-1.477.68-1.477 1.473.114.907.682 1.474 1.477 1.474zm14.649 12.807c.227.113.34.113.568.113.567 0 1.022-.34 1.249-.906l.113-.34c.341-.68 0-1.587-.68-1.814-.682-.34-1.59 0-1.818.68l-.227.34c-.227.794.114 1.587.795 1.927zm20.1-19.72l-.568.567a1.434 1.434 0 000 2.04c.227.226.682.453 1.022.453.341 0 .682-.113 1.022-.453l.568-.567a1.434 1.434 0 000-2.04 1.442 1.442 0 00-2.044 0zm22.599-3.06l.34.227c.227.113.455.113.682.113.568 0 1.022-.34 1.249-.793.34-.68.113-1.587-.681-1.927l-.341-.113c-.682-.34-1.59-.114-1.93.68-.341.68-.114 1.473.68 1.813zM66.32 62.333c-.681.454-.908 1.247-.454 1.927.227.453.681.68 1.249.68.227 0 .454-.113.681-.227l.909-.566c.681-.454.908-1.247.454-1.927-.454-.68-1.25-.907-1.93-.453l-.909.566zm20.327-2.38c-.568.454-.795 1.247-.454 1.927.227.567.795.907 1.363.907h.454c.681-.227 1.25-.907 1.136-1.587 0-.227-.114-.453-.114-.567a1.564 1.564 0 00-.34-.453c-.682-.68-1.477-.68-2.045-.227zm23.507 15.867v-.34c0-.793-.681-1.473-1.476-1.473-.795 0-1.476.68-1.476 1.473v.34c0 .793.681 1.473 1.476 1.473.795 0 1.476-.68 1.476-1.473zm-5.564-3.627l11.697-1.36c.795-.113 1.362-.793 1.249-1.586-.114-.794-.795-1.36-1.59-1.247l-11.697 1.36c-.795.113-1.363.793-1.249 1.587.114.68.681 1.246 1.363 1.246.113.114.113 0 .227 0zm11.924 2.494c-.682-.454-1.59-.227-1.931.453-.454.68-.227 1.587.454 1.927 1.704 1.02 2.839 2.72 3.294 4.646.34 1.927-.114 3.967-1.363 5.44a4.933 4.933 0 00-.681.794c-.568.566-1.136 1.246-1.59 2.153-.795 1.587-.682 3.74 1.022 4.76.227.113.454.227.795.227h.34c.341-.114.682-.34.909-.68l.454-.794c.341-.68.114-1.586-.568-1.926-.113-.114-.227-.114-.34-.114 0 0 0-.113.113-.113.227-.453.682-1.02 1.136-1.473.227-.34.568-.567.795-.907 1.703-2.153 2.385-5.1 1.93-7.707-.681-2.833-2.384-5.326-4.769-6.686zm16.012-6.347c-1.136 1.473-2.953 2.38-4.77 2.493-1.817.114-3.747-.566-4.996-1.926a1.443 1.443 0 00-2.045 0 1.436 1.436 0 000 2.04c1.704 1.813 4.202 2.833 6.701 2.833h.454c2.612-.113 5.224-1.473 6.813-3.513.455-.567.341-1.474-.227-2.04-.568-.68-1.476-.567-1.93.113z" fill="#DAE2E8" fill-opacity=".7"/><path d="M142.633 55.08c.795 0 1.589-.113 2.384-.453 2.385-.907 3.861-2.947 5.111-4.534 1.135-1.473 2.384-3.06 3.974-3.74.682-.34 1.022-1.133.795-1.813-.34-.68-1.135-1.02-1.817-.793-2.271 1.02-3.861 2.946-5.11 4.533-1.363 1.7-2.385 3.06-3.975 3.627-1.249.453-2.952.226-3.52-.907-.341-.68-1.136-1.02-1.817-.793-.681.34-1.022 1.133-.795 1.813.795 2.04 2.726 3.06 4.77 3.06zM90.622 95.087c.227 0 .454 0 .568-.114.568-.226 1.022-.793 1.022-1.473s-.34-1.247-.909-1.473c-.454-.227-.908-.227-1.249 0a1.231 1.231 0 00-.908.906c-.227.567 0 1.247.454 1.7.227.34.681.454 1.022.454zm64.389-55.534c-.568.454-.682 1.36-.227 2.04l9.766 12.58c-1.704-4.306-3.748-8.5-6.132-12.466l-1.363-1.814c-.568-.68-1.476-.793-2.044-.34zm-52.579 64.714h.341c.681 0 1.249-.454 1.363-1.02l3.974-15.527c.227-.793-.227-1.473-1.022-1.7-.795-.227-1.476.227-1.703 1.02l-3.975 15.527c-.227.68.227 1.473 1.022 1.7zm-14.535 6.46c.227 0 .454 0 .68-.114.682-.34.91-1.246.569-1.926L82.559 96.22c-.34-.68-1.249-.907-1.93-.567-.682.34-.909 1.247-.568 1.927l6.586 12.467c.227.34.795.68 1.25.68zM59.733 96.9c-.68-.453-1.59-.227-1.93.453l-4.883 7.934c-.454.68-.227 1.586.454 1.926.227.114.454.227.795.227.454 0 .909-.227 1.25-.68l4.882-7.933c.341-.68.114-1.587-.568-1.927zM22.94 115.6c.454 0 .909-.227 1.25-.68.453-.68.226-1.587-.455-1.927-5.11-3.06-11.129-4.42-16.92-4.08-.796 0-1.363.68-1.363 1.474 0 .793.681 1.36 1.476 1.36 5.224-.34 10.675.906 15.217 3.626.227.114.568.227.795.227zm30.207-3.06c0-.793-.568-1.473-1.363-1.473-2.725-.114-5.45-.907-7.949-2.154l-.681-.34c-.795-.453-1.704-.906-2.612-1.133-1.59-.453-3.18-.34-4.43.34-1.93 1.133-2.61 3.74-1.589 5.667.227.453.795.793 1.25.793.226 0 .453 0 .68-.113.682-.34.91-1.247.568-1.927-.34-.68-.113-1.587.568-1.927.568-.34 1.25-.34 2.158-.113.681.227 1.363.567 2.157.907l.682.34c2.839 1.36 5.905 2.266 9.085 2.38.795.113 1.476-.454 1.476-1.247zm18.283-2.833c-.795-.114-1.476.453-1.59 1.246-.113.794.455 1.474 1.25 1.587.34 0 .68.113 1.022.113 3.293 0 6.473-1.926 7.835-4.873 1.59-3.173.909-7.367-1.703-9.86a1.442 1.442 0 00-2.044 0 1.434 1.434 0 000 2.04c1.703 1.7 2.157 4.533 1.135 6.687-1.022 1.926-3.633 3.286-5.905 3.06zm-8.517-2.947c.795 0 1.477-.68 1.477-1.473v-1.134c0-.793-.682-1.473-1.477-1.473s-1.476.68-1.476 1.473v1.134c.114.793.681 1.473 1.476 1.473z" fill="#DAE2E8" fill-opacity=".7"/><path d="M105.385 109.933c1.476-.566 2.612-1.813 2.725-3.173 0-.793-.567-1.473-1.362-1.473-.795 0-1.477.566-1.477 1.36 0 .226-.34.566-.795.68-.681.226-1.476.113-2.157.113-1.931-.113-3.52-.227-4.883-.907-1.136-.566-2.385-1.7-2.385-2.946 0-.794-.681-1.36-1.476-1.36-.795 0-1.363.68-1.363 1.473.113 2.267 1.703 4.307 4.088 5.327 1.93.906 4.202 1.02 5.905 1.133h1.136c.568.113 1.363 0 2.044-.227zm24.983-27.993c.454.68 1.363.793 1.931.453 1.817-1.133 4.315-1.246 6.132-.113 1.363.793 2.271 2.153 2.612 3.74-.454.113-.795.34-.909.793-.34.68 0 1.587.682 1.814l1.135.453c.227.113.341.113.568.113.227 0 .454-.113.682-.226.34-.227.681-.68.681-1.134.341-3.173-1.363-6.46-4.088-8.16-2.726-1.7-6.473-1.586-9.085.227-.568.453-.795 1.36-.341 2.04zm-4.769-3.287c.795 0 1.476-.68 1.476-1.473s-.681-1.473-1.476-1.473h-.228c-.794 0-1.476.68-1.476 1.473s.682 1.473 1.476 1.473h.228zm27.935-18.36a8.901 8.901 0 00-5.11-.453c-1.93.567-3.407 1.927-4.088 3.627-.681 1.926-.113 4.193 1.363 5.44a1.46 1.46 0 002.044-.227 1.455 1.455 0 00-.227-2.04c-.568-.453-.795-1.473-.568-2.267.341-.793 1.136-1.586 2.158-1.813 1.022-.227 2.157-.113 3.293.34 1.363.567 2.385 1.587 2.839 2.72.341 1.133 0 2.493-.909 2.947-.681.453-.908 1.246-.454 1.926.227.454.682.68 1.249.68.227 0 .455-.113.682-.226 2.044-1.134 2.952-3.854 2.157-6.234-.681-1.813-2.271-3.513-4.429-4.42zm-5.564 14.734a17.42 17.42 0 00-2.158-.907c-1.022-.453-1.93-.793-2.725-1.247-1.476-.906-2.385-2.04-2.498-3.173-.114-.793-.795-1.36-1.59-1.247-.795.114-1.363.794-1.249 1.587.34 2.04 1.703 3.853 3.861 5.213 1.022.567 2.044 1.02 3.066 1.474a10.09 10.09 0 011.93.906c3.407 1.7 6.133 4.76 7.382 8.274.227.566.795.906 1.362.906.114 0 .341 0 .455-.113.681-.227 1.135-1.133.795-1.813-1.363-4.307-4.543-7.82-8.631-9.86zm7.154-20.854l.568.567c.227.227.568.34.909.34.34 0 .795-.113 1.022-.453.567-.567.454-1.474-.114-2.04l-.568-.567c-.568-.567-1.476-.453-2.044.113-.34.68-.34 1.587.227 2.04zm8.404 9.067c-.341.68.113 1.587.795 1.813 1.135.454 2.385.68 3.747.794-.227-1.02-.454-1.927-.681-2.834-.681-.113-1.363-.226-1.931-.453-.795-.453-1.59 0-1.93.68zm-6.246 11.56c-.681 2.267.795 4.533 1.363 5.213 2.157 3.06 4.996 5.554 8.29 7.367.227.113.454.113.681.113.454 0 1.022-.226 1.249-.793.341-.68.114-1.587-.568-1.927a21.067 21.067 0 01-7.268-6.46c-.794-1.246-1.135-2.153-.908-2.72.227-.793-.227-1.586-.909-1.813-.908-.113-1.703.227-1.93 1.02zm7.608-.227c-.34.68 0 1.587.795 1.814 1.477.68 2.953 1.246 4.316 2.04l-.341-3.4c-1.022-.454-1.93-.907-2.953-1.36-.681-.114-1.476.226-1.817.906zM122.987 98.26c.113.68.681 1.247 1.362 1.247h.228c.794-.114 1.362-.794 1.249-1.587-.227-1.36.227-2.72 1.022-3.853 1.362-1.7 3.861-2.493 5.905-1.927 2.044.68 3.747 2.607 3.861 4.873.113.794.681 1.36 1.476 1.36.795-.113 1.363-.793 1.363-1.473-.227-3.4-2.726-6.347-5.905-7.367-3.18-.906-6.927.227-8.971 2.947-1.25 1.474-1.817 3.627-1.59 5.78zm-7.722 2.153c-.682.454-.909 1.247-.455 1.927 2.272 3.627 4.883 6.913 7.836 9.973.227.34.681.454 1.022.454.341 0 .681-.114 1.022-.454a1.434 1.434 0 000-2.04 60.128 60.128 0 01-7.495-9.52c-.454-.566-1.249-.793-1.93-.34zm35.544-.906c.454 0 .795-.227 1.136-.567l6.359-7.933c.454-.567.341-1.474-.227-2.04-.568-.454-1.476-.34-2.044.226l-6.36 7.934c-.454.566-.34 1.473.228 2.04.34.226.681.34.908.34zM31.116 122.06s.114 0 0 0c.795 0 1.477-.68 1.363-1.473l-.34-8.5c0-.794-.682-1.36-1.477-1.36s-1.363.68-1.363 1.473l.341 8.5c.114.793.795 1.36 1.476 1.36zm-19.078-7.367a1.443 1.443 0 00-2.044 0l-3.407 3.4c.34.907.795 1.814 1.25 2.72l4.201-4.193c.568-.453.568-1.36 0-1.927zm130.595-16.886c-.795 0-1.477.566-1.477 1.36 0 1.246-1.022 2.493-1.817 3.286-.454.454-1.022.907-1.703 1.474-.681.566-1.363 1.133-2.044 1.813-1.136 1.133-2.498 3.06-2.498 5.327 0 1.246.681 2.606 1.589 3.4.795.68 1.704 1.133 2.726 1.133h.227c.795 0 1.363-.68 1.363-1.473 0-.794-.682-1.36-1.477-1.36-.34 0-.681-.227-.794-.34-.341-.34-.682-.907-.682-1.474 0-1.36 1.022-2.606 1.59-3.286.568-.567 1.136-1.02 1.817-1.587.568-.453 1.249-1.02 1.817-1.587 1.703-1.586 2.612-3.4 2.612-5.213.227-.793-.454-1.473-1.249-1.473zm.795 12.466c-.795 0-1.477.567-1.477 1.36 0 .794.568 1.474 1.363 1.474h.909c.794 0 1.362-.567 1.362-1.36 0-.794-.568-1.474-1.362-1.474h-.795zm21.803-14.166c-.681-.34-1.59 0-1.817.793l-.34.68c-.341.68 0 1.587.794 1.813.228.114.341.114.568.114.568 0 1.136-.34 1.363-.907l.341-.68c.113-.68-.227-1.473-.909-1.813zm-14.422-8.16c.227-.794 0-1.587-.795-1.927-.681-.453-1.59-.227-2.044.34-.114.113-.227.34-.341.567-.113.226-.113.453-.113.68 0 .793.681 1.36 1.476 1.473h.227c.795-.113 1.363-.453 1.59-1.133zm8.063 18.246c-.568-.453-1.136-.906-1.59-1.473-.568-.567-1.363-1.587-1.249-2.72.113-.793-.454-1.473-1.249-1.587-.795-.113-1.477.454-1.59 1.247-.114 1.7.568 3.4 2.044 4.987.568.566 1.249 1.133 1.817 1.7.454.453 1.022.793 1.363 1.246 1.589 1.587 2.611 3.74 2.952 6.007.114.68.682 1.247 1.363 1.247h.113c.795-.114 1.363-.794 1.25-1.587-.341-2.947-1.59-5.667-3.748-7.707-.454-.453-1.022-.906-1.476-1.36zM73.701 126.82c.228.113.455.113.682.113.568 0 1.022-.34 1.249-.793.34-.68.114-1.587-.681-1.927-4.656-2.266-8.29-6.686-9.653-11.673-.227-.793-1.022-1.247-1.703-1.02-.795.227-1.25 1.02-1.022 1.7 1.59 5.893 5.791 10.88 11.128 13.6zm12.038-7.933c.454.34.795.68 1.135 1.02.341.34.795.793 1.25 1.133a12.935 12.935 0 008.062 2.833c.455 0 1.022 0 1.477-.113.795-.113 1.362-.793 1.249-1.587-.114-.793-.795-1.36-1.59-1.246-2.612.34-5.337-.454-7.268-2.154l-1.022-1.02c-.454-.453-.908-.793-1.363-1.246-1.249-1.02-2.498-1.587-3.747-1.587-1.817-.113-3.407.907-3.975 2.493-.227.68.114 1.587.795 1.814.682.226 1.59-.114 1.817-.794.114-.34.681-.68 1.25-.566.454.113 1.135.453 1.93 1.02zm26.459-5.214c.341.567.682 1.02 1.022 1.587 1.136 2.04 1.817 4.307 1.931 6.573 0 .794.681 1.36 1.363 1.36.795 0 1.362-.68 1.362-1.473a17.308 17.308 0 00-2.271-7.82c-.34-.567-.795-1.133-1.135-1.813-.568-.794-1.136-1.587-1.477-2.494-.681-1.36-.681-2.72-.227-3.626.341-.68.114-1.587-.568-1.927-.681-.34-1.589-.113-1.93.567-.909 1.7-.795 3.966.227 6.12.568 1.133 1.136 2.04 1.703 2.946zm19.192 18.814c1.022.793 2.271 1.133 3.521 1.133.681 0 1.476-.113 2.044-.453.681-.34 1.022-1.134.681-1.927-.341-.68-1.136-1.02-1.931-.68-.794.34-1.816.227-2.725-.453-1.136-.794-1.931-2.154-1.931-3.627 0-1.473.682-2.833 1.817-3.627.682-.453.795-1.36.341-1.926-.454-.68-1.363-.794-1.93-.34-1.817 1.36-2.953 3.74-2.953 6.006-.114 2.38 1.136 4.534 3.066 5.894zm-4.315-18.7c-.227.68.113 1.473.795 1.926.34.227.681.34 1.022.34.341 0 .795-.113 1.135-.34.568-.453.682-1.36.228-2.04-.114-.226-.341-.34-.568-.453-.227-.227-.341-.34-.682-.34-1.022-.227-1.703.227-1.93.907z" fill="#DAE2E8" fill-opacity=".7"/><path d="M129.8 101.547c.227.113.568.226.795.226.227 0 .455-.113.682-.226.454-.227.795-.68.908-1.247 0-.567-.341-1.133-.795-1.36-.454-.34-1.135-.453-1.59-.113-.454.34-.795.793-.795 1.36 0 .566.341 1.133.795 1.36zm-74.609 16.886l-.113.794c-.114.793.567 1.473 1.249 1.586h.113c.682 0 1.363-.566 1.363-1.246l.114-.794c.113-.793-.568-1.473-1.25-1.473-.68-.227-1.362.34-1.476 1.133zM40.428 131.24c.34-.567.34-1.247-.113-1.813l-.568-.68c-.568-.567-1.363-.68-2.044-.114-.455.454-.568 1.134-.34 1.587-1.023.68-2.386.907-3.521.68-1.93-.227-3.634-1.36-5.11-2.38-1.25-.907-2.726-2.04-3.52-3.513-.682-1.36-.682-2.834 0-3.854.453-.68.34-1.473-.228-2.04-.681-.453-1.476-.34-2.044.227-1.363 1.813-1.476 4.533-.227 6.8 1.022 1.927 2.839 3.4 4.315 4.42 1.59 1.133 3.748 2.493 6.246 2.833.454.114.795.114 1.25.114 2.497.34 4.655-.567 5.904-2.267zm-22.938 2.947c1.475-1.7 2.043-4.08 1.475-6.234-.34-1.246-.908-2.153-1.59-3.173-.68-1.133-1.249-2.153-1.249-3.173s.795-2.04 1.704-2.267c.795-.227 1.249-1.02 1.022-1.7-.227-.793-1.022-1.247-1.704-1.02-2.157.567-3.86 2.72-3.86 4.987 0 1.813.908 3.286 1.703 4.646.568.794 1.022 1.587 1.249 2.494.34 1.246 0 2.606-.795 3.626-.227.227-.454.454-.681.567.567.793 1.135 1.587 1.703 2.267.34-.227.681-.567 1.022-1.02zm65.637-2.04c1.022-2.607.681-5.78-.795-8.16-.454-.68-1.25-.907-1.93-.454-.682.454-.909 1.247-.455 1.927 1.022 1.7 1.25 3.853.568 5.667-.681 1.813-2.271 3.286-4.088 3.853-.681.227-1.022.793-1.022 1.473.114.68.681 1.247 1.363 1.247h.681c.454 0 .909-.227 1.136-.68 2.044-.793 3.747-2.607 4.542-4.873zm40.882-3.4c-.568-.567-1.363-.68-2.044-.114-1.136 1.02-2.839 1.587-4.429 1.36-1.59-.226-3.066-1.02-3.975-2.38-.227-.34-.454-.793-.681-1.133-.454-.793-.909-1.587-1.59-2.38a4.744 4.744 0 00-3.293-1.36c-.909 0-1.704.453-2.385 1.133-.568.567-.454 1.474.114 2.04.567.567 1.476.454 2.044-.113 0 0 .113-.113.34-.113.341 0 .909.226 1.136.453.454.453.795 1.02 1.136 1.7.227.453.567.907.908 1.473 1.363 1.927 3.634 3.287 6.019 3.514h.908c2.044 0 4.202-.794 5.678-2.154.568-.453.568-1.36.114-1.926zm27.822-4.194c2.158-1.02 3.748-2.946 4.542-5.1.682-2.266.568-4.76-.567-6.8-.341-.68-1.25-.906-1.931-.566-.681.34-.908 1.246-.568 1.926.682 1.36.909 3.06.341 4.534-.454 1.473-1.59 2.833-3.066 3.513-1.363.68-3.293.68-4.202-.453-.454-.567-1.363-.68-2.044-.227-.568.453-.681 1.36-.227 2.04 1.136 1.36 2.725 1.927 4.429 1.927 1.135-.114 2.271-.34 3.293-.794zm-86.533 1.7c-.795.114-1.25.907-1.136 1.587l2.385 13.6c.114.68.681 1.133 1.363 1.133h.227c.795-.113 1.25-.906 1.136-1.586l-2.385-13.6c-.114-.794-.795-1.247-1.59-1.134zm28.049 13.94c.114 0 .341.114.455.114.567 0 1.135-.34 1.362-.907l4.089-11.9c.227-.793-.114-1.587-.909-1.813-.795-.227-1.59.113-1.817.906l-4.088 11.9c-.227.68.227 1.474.908 1.7zm64.389-16.66l-9.198 7.367c-.568.453-.682 1.36-.227 2.04.227.34.681.567 1.135.567.341 0 .682-.114.909-.34l9.198-7.367c.568-.453.682-1.36.227-2.04-.567-.567-1.476-.68-2.044-.227zm-42.358 17.114c-.681-2.494-2.498-4.42-4.088-5.894l-4.883-4.646a1.44 1.44 0 00-2.044 0 1.434 1.434 0 000 2.04l4.883 4.646c1.59 1.587 2.839 2.834 3.293 4.534.341 1.36 0 2.833-.908 3.853-.682.793-1.477 1.247-2.272 1.133-.681 0-1.362-.566-1.476-1.133-.113-.793-.795-1.36-1.59-1.247-.795.114-1.362.794-1.249 1.587.227 1.927 2.044 3.627 4.088 3.74h.227c1.59 0 3.18-.793 4.429-2.153 1.477-1.814 2.044-4.307 1.59-6.46zM144.223 136c-.682-.453-1.59-.227-1.931.453-1.703 2.494-4.656 4.194-7.722 4.194-3.066 0-6.132-1.587-7.722-4.194-.454-.68-1.363-.793-1.931-.453-.681.453-.795 1.36-.454 1.927 2.158 3.4 6.132 5.44 10.107 5.44 4.088 0 7.949-2.154 10.107-5.44.454-.567.227-1.474-.454-1.927zm-96.868-6.12v.34c0 .793.682 1.473 1.477 1.473s1.476-.68 1.476-1.473v-.34c0-.793-.681-1.473-1.476-1.473-.795 0-1.477.68-1.477 1.473zm72.793 13.147c-.795 0-1.477.68-1.477 1.473s.682 1.473 1.477 1.473h.34c.795 0 1.477-.68 1.477-1.473s-.682-1.473-1.477-1.473h-.34zm-90.508.906a5.22 5.22 0 00-1.703-2.946c-2.045-1.927-5.338-2.267-7.836-1.02.681.793 1.25 1.473 1.93 2.266 1.363-.34 2.84-.113 3.861.794.455.453.796.906.796 1.36.113.453 0 .793-.341 1.02-.227.226-.34.453-.455.793.568.567 1.136 1.133 1.704 1.587a.626.626 0 00.568-.34c1.249-.794 1.703-2.154 1.476-3.514zm16.126 1.927c.908-.907 1.59-1.7 2.498-1.813 1.022-.114 2.271.906 3.293 1.813.568.567 1.476.453 2.044-.113.568-.567.455-1.474-.113-2.04-1.022-1.02-3.066-2.834-5.451-2.607-1.93.227-3.066 1.473-4.202 2.607-.681.68-1.25 1.36-1.93 1.7-.909.453-2.045.34-2.84-.114-.794-.566-1.249-1.586-1.249-2.493.114-.793-.454-1.473-1.249-1.587-.795-.113-1.476.454-1.59 1.247-.227 2.04.795 3.967 2.499 5.1.908.68 2.044.907 3.18.907.908 0 1.816-.227 2.611-.567.909-.34 1.817-1.247 2.499-2.04zm16.012-.34c.681 0 1.249-.453 1.362-1.133.114-.794-.34-1.474-1.135-1.7-1.817-.34-3.294-2.154-3.294-3.967 0-.793.228-1.7.455-2.607l.113-.34c.341-1.133.682-2.493.341-3.966-.34-1.814-1.476-3.174-3.066-3.627a3.782 3.782 0 00-3.066.68c-.795.567-1.25 1.473-1.136 2.38 0 .793.681 1.36 1.476 1.36.795 0 1.363-.68 1.363-1.473 0 0 0-.114.227-.227.114-.113.34-.113.455-.113.454.113.908.68 1.022 1.36.113.906-.114 1.926-.341 2.72l-.114.34c-.34 1.02-.567 2.153-.567 3.286 0 3.174 2.498 6.12 5.564 6.8.227.227.227.227.34.227zm1.362 4.307c1.704 2.493 4.656 3.966 7.609 3.966.34 0 .681 0 1.136-.113 3.293-.453 6.359-2.833 7.38-6.007.682-2.04.342-4.646-1.703-5.666-.68-.34-1.59-.114-1.93.68-.34.68-.114 1.586.681 1.926.568.227.568 1.36.227 2.267-.794 2.153-2.839 3.853-5.11 4.08-2.271.34-4.656-.793-6.019-2.72-.454-.68-1.362-.793-1.93-.34-.568.34-.795 1.247-.34 1.927z" fill="#DAE2E8" fill-opacity=".7"/><path d="M97.55 146.993c-1.023-.453-2.159-.793-3.18-1.133-1.363-.453-2.612-.907-3.748-1.473-1.476-.794-2.84-2.154-3.18-3.74.227.34.568.453 1.022.566.909.114 1.704-.453 2.272-1.246.567-.907.567-1.927 0-2.834-.795-1.36-2.726-1.7-4.202-.793-1.022.68-1.704 1.813-1.93 3.173-.341 3.4 2.27 6.12 4.655 7.367 1.363.793 2.84 1.247 4.316 1.7 1.022.34 2.044.68 2.952 1.02 2.271 1.02 3.861 2.607 4.088 4.193.114.68-.227 1.474-.681 1.927-.227.227-.568.34-.795.34-.795-.113-1.476.453-1.59 1.247-.113.793.454 1.473 1.25 1.586h.34c1.022 0 1.931-.453 2.725-1.246 1.022-1.134 1.59-2.72 1.363-4.307-.341-2.493-2.385-4.873-5.678-6.347zm34.067-.453c-.113-.793-.908-1.247-1.703-1.133-.795.113-1.249.906-1.136 1.7.227 1.02-.568 2.04-1.362 2.72-2.953 2.493-7.723 2.606-10.675.113a1.461 1.461 0 00-2.044.227 1.455 1.455 0 00.227 2.04c2.044 1.586 4.542 2.493 7.041 2.493 2.612 0 5.223-.907 7.268-2.607 1.93-1.586 2.725-3.626 2.384-5.553zm12.833-.567c1.022-1.02 2.044-2.04 2.952-3.06-.454.227-.908.454-1.362.794a5.461 5.461 0 00-1.59 2.266zm-4.429 1.02c-.682-.226-1.59.114-1.817.794L136.273 153c1.477-1.133 2.953-2.267 4.316-3.513l.227-.68a1.341 1.341 0 00-.795-1.814zm-84.83 1.36l-9.653 9.067c-.567.567-.567 1.473-.113 2.04.227.34.681.453 1.022.453.34 0 .681-.113 1.022-.34l9.653-9.066c.567-.567.567-1.474.113-2.04-.568-.68-1.476-.68-2.044-.114zm33.5 4.76c-.454-.793-1.135-1.36-1.93-1.473-.795-.113-1.476.34-1.703 1.133-.114.794.34 1.474 1.135 1.7.114 0 .227.34.114.567-.114.453-.682.793-1.363.907-.681.113-1.363.113-2.158.226h-.681c-1.136 0-2.498.114-3.634.907-1.59 1.02-2.612 2.947-2.385 4.76.227 1.927 1.59 3.513 3.407 4.08.114 0 .227.113.454.113.568 0 1.136-.34 1.363-1.02.227-.793-.227-1.586-.909-1.813-.68-.227-1.362-.907-1.476-1.7-.113-.793.34-1.587 1.022-2.04.682-.34 1.477-.453 2.272-.453h.567c.909 0 1.817 0 2.84-.227 1.59-.453 2.838-1.473 3.292-2.72.341-1.02.228-2.04-.227-2.947zm29.526 8.614c-2.157-3.06-6.813-3.967-9.88-1.814-2.384 1.7-3.406 4.76-2.839 7.48l2.726-.68c-.341-1.586.341-3.513 1.703-4.42 1.817-1.246 4.656-.68 5.905 1.02.228.34.455.454.795.567.568-.227 1.022-.34 1.59-.567.341-.453.341-1.02 0-1.586zm-28.163-4.307a1.583 1.583 0 00-1.022 0c-.568.227-.908.907-.908 1.473 0 .68.454 1.247 1.135 1.36h.454c.455 0 .909-.226 1.25-.68.34-.566.34-1.246 0-1.7-.227-.113-.568-.34-.909-.453zm-11.81-3.06h.227c.795 0 1.476-.68 1.476-1.473 0-.794-.681-1.474-1.476-1.474h-.227c-.795 0-1.476.68-1.476 1.474.113.793.68 1.473 1.476 1.473zm-37.816-2.833c-.795 0-1.476.68-1.476 1.473v.227c0 .793.681 1.473 1.476 1.473.795 0 1.477-.68 1.477-1.473V153c-.114-.907-.682-1.473-1.477-1.473zM29.3 136.793c-.796 0-1.477.68-1.477 1.474v.226c0 .794.681 1.474 1.476 1.474.795 0 1.477-.68 1.477-1.474v-.226c-.114-.907-.795-1.474-1.477-1.474zm94.368 22.1l-.795.34c-.681.34-1.022 1.247-.681 1.927 0 .113.113.227.227.34 1.022-.567 2.158-1.02 3.18-1.587 0-.113 0-.226-.114-.34-.341-.793-1.136-1.133-1.817-.68zm-68.023 2.947c-.113-.793-.795-1.36-1.59-1.247-1.476.114-2.838.907-3.86 1.927 1.022.453 1.93.907 2.952 1.247.34-.227.795-.34 1.25-.34.794-.114 1.362-.794 1.248-1.587zm7.95-5.1c-2.044 1.473-2.84 4.533-1.704 6.8.34.68 1.136 1.02 1.93.68.682-.34 1.023-1.133.682-1.927-.568-1.133-.114-2.606.795-3.286.909-.68 2.498-.68 3.407.226.908.794 1.135 2.38.454 3.4-.454.68-.227 1.587.454 1.927.227.113.454.227.795.227.454 0 .909-.227 1.25-.68 1.362-2.154.908-5.214-.91-6.914-2.043-1.7-5.11-1.926-7.153-.453zm26.232 10.54c.34-.113.795 0 1.25 0 .453.113 1.021.113 1.59.113 1.135-.113 2.27-.793 2.724-1.7.455-.68.455-1.586.114-2.266-.34-.68-1.135-1.02-1.93-.68-.682.34-.909 1.02-.795 1.7-.114.113-.341.226-.455.226-.34 0-.681 0-1.135-.113-.682-.113-1.363-.113-2.158 0-2.044.453-3.066 2.153-3.974 3.4l-.682 1.02c-.227.34-.568.68-.908 1.02h1.476c.795 0 1.476 0 2.271-.113.114-.114.227-.227.227-.454.909-.906 1.59-1.926 2.385-2.153zm28.844-51.793l-.227.226a1.434 1.434 0 000 2.04c.227.227.682.454 1.022.454.341 0 .682-.114 1.022-.454l.227-.226a1.434 1.434 0 000-2.04 1.44 1.44 0 00-2.044 0zm-18.056 0a1.434 1.434 0 000 2.04l.227.226c.228.227.682.454 1.022.454.341 0 .682-.114 1.022-.454a1.434 1.434 0 000-2.04l-.227-.226a1.44 1.44 0 00-2.044 0zm-60.982 3.74l-.34.226c-.682.34-1.022 1.247-.682 1.927.227.453.795.793 1.25.793.227 0 .454 0 .68-.113l.342-.227c.68-.34 1.022-1.246.68-1.926-.453-.794-1.248-1.134-1.93-.68z" fill="#DAE2E8" fill-opacity=".7"/></svg>