<svg width="194" height="123" fill="none" xmlns="http://www.w3.org/2000/svg"><g opacity=".1" fill="#295271"><path d="M174.204 14.3c-5.273 0-7.865-3.2-10.368-6.4-2.324-3-4.558-5.8-8.938-5.8-4.38 0-6.614 2.8-8.938 5.8-2.503 3.1-5.095 6.4-10.368 6.4-5.274 0-7.866-3.2-10.369-6.4-2.324-3-4.558-5.8-8.938-5.8-4.379 0-6.614 2.8-8.938 5.8-2.503 3.1-5.095 6.4-10.368 6.4-5.274 0-7.866-3.3-10.279-6.4-2.324-3-4.559-5.8-8.938-5.8-4.38 0-6.614 2.8-8.938 5.8-2.503 3.1-5.095 6.4-10.368 6.4-5.274 0-7.866-3.2-10.28-6.4-2.323-3-4.558-5.8-8.938-5.8-4.38 0-6.614 2.8-8.938 5.8-2.502 3.1-5.094 6.4-10.279 6.4-5.273 0-7.865-3.2-10.368-6.4C7.33 4.9 5.095 2.1.715 2.1V.9C5.99.9 8.581 4.1 11.083 7.3c2.324 3 4.559 5.8 8.938 5.8 4.38 0 6.615-2.8 8.939-5.8C31.462 4.2 34.054.9 39.239.9c5.273 0 7.865 3.2 10.278 6.4 2.324 3 4.559 5.8 8.938 5.8 4.38 0 6.615-2.8 8.939-5.8C69.896 4.2 72.488.9 77.762.9c5.273 0 7.865 3.2 10.368 6.4 2.324 3 4.559 5.8 8.938 5.8 4.38 0 6.614-2.8 8.938-5.8 2.503-3.1 5.095-6.4 10.369-6.4 5.273 0 7.865 3.2 10.368 6.4 2.324 3 4.558 5.8 8.938 5.8 4.38 0 6.614-2.8 8.938-5.8 2.503-3.1 5.095-6.4 10.368-6.4 5.274 0 7.866 3.2 10.369 6.4 2.323 3 4.558 5.8 8.938 5.8 4.379 0 6.614-2.8 8.938-5.8C185.735 4.2 188.327.9 193.6.9v1.2c-4.38 0-6.614 2.8-8.938 5.8-2.682 3.1-5.184 6.4-10.458 6.4z"/><path d="M174.204 25.1c-5.273 0-7.865-3.2-10.368-6.4-2.324-3-4.558-5.8-8.938-5.8-4.38 0-6.614 2.8-8.938 5.8-2.503 3.1-5.095 6.4-10.368 6.4-5.274 0-7.866-3.2-10.369-6.4-2.324-3-4.558-5.8-8.938-5.8-4.38 0-6.614 2.8-8.938 5.8-2.503 3.1-5.095 6.4-10.368 6.4-5.274 0-7.866-3.2-10.368-6.4-2.324-3-4.559-5.8-8.939-5.8s-6.614 2.8-8.938 5.8c-2.502 3.1-5.094 6.4-10.368 6.4-5.273 0-7.865-3.2-10.279-6.4-2.324-3-4.558-5.8-8.938-5.8-4.38 0-6.614 2.8-8.938 5.8-2.503 3.1-5.095 6.4-10.279 6.4-5.273 0-7.865-3.2-10.368-6.4-2.324-3-4.559-5.8-8.938-5.8v-1.2c5.273 0 7.865 3.2 10.368 6.4 2.324 3 4.558 5.8 8.938 5.8 4.38 0 6.614-2.8 8.938-5.8 2.503-3.1 5.095-6.4 10.279-6.4 5.273 0 7.866 3.2 10.279 6.4 2.324 3 4.558 5.8 8.938 5.8 4.38 0 6.614-2.8 8.938-5.8 2.503-3.1 5.095-6.4 10.368-6.4 5.274 0 7.866 3.2 10.369 6.4 2.324 3 4.558 5.8 8.938 5.8 4.379 0 6.614-2.8 8.938-5.8 2.503-3.1 5.095-6.4 10.368-6.4 5.274 0 7.866 3.2 10.368 6.4 2.324 3 4.559 5.8 8.939 5.8 4.379 0 6.614-2.8 8.938-5.8 2.502-3.1 5.094-6.4 10.368-6.4 5.273 0 7.865 3.2 10.368 6.4 2.324 3 4.559 5.8 8.938 5.8 4.38 0 6.614-2.8 8.938-5.8 2.503-3.1 5.095-6.4 10.369-6.4v1.2c-4.38 0-6.615 2.8-8.939 5.8-2.592 3.1-5.094 6.4-10.368 6.4z"/><path d="M174.204 35.9c-5.273 0-7.865-3.2-10.368-6.4-2.324-3-4.558-5.8-8.938-5.8-4.38 0-6.614 2.8-8.938 5.8-2.503 3.1-5.095 6.4-10.368 6.4-5.274 0-7.866-3.2-10.369-6.4-2.324-3-4.558-5.8-8.938-5.8-4.38 0-6.614 2.8-8.938 5.8-2.503 3.1-5.095 6.4-10.368 6.4-5.274 0-7.866-3.2-10.368-6.4-2.324-3-4.559-5.8-8.939-5.8s-6.614 2.8-8.938 5.8c-2.502 3.1-5.094 6.4-10.368 6.4-5.273 0-7.865-3.2-10.279-6.4-2.324-3-4.558-5.8-8.938-5.8-4.38 0-6.614 2.8-8.938 5.8-2.503 3.1-5.095 6.4-10.279 6.4-5.273 0-7.865-3.2-10.368-6.4-2.324-3-4.559-5.8-8.938-5.8v-1.2c5.273 0 7.865 3.2 10.368 6.4 2.324 3 4.558 5.8 8.938 5.8 4.38 0 6.614-2.8 8.938-5.8 2.503-3.1 5.095-6.4 10.279-6.4 5.273 0 7.866 3.2 10.279 6.4 2.324 3 4.558 5.8 8.938 5.8 4.38 0 6.614-2.8 8.938-5.8 2.503-3.1 5.095-6.4 10.368-6.4 5.274 0 7.866 3.2 10.369 6.4 2.324 3 4.558 5.8 8.938 5.8 4.379 0 6.614-2.8 8.938-5.8 2.503-3.1 5.095-6.4 10.368-6.4 5.274 0 7.866 3.2 10.368 6.4 2.324 3 4.559 5.8 8.939 5.8 4.379 0 6.614-2.8 8.938-5.8 2.502-3.1 5.094-6.4 10.368-6.4 5.273 0 7.865 3.2 10.368 6.4 2.324 3 4.559 5.8 8.938 5.8 4.38 0 6.614-2.8 8.938-5.8 2.503-3.1 5.095-6.4 10.369-6.4v1.2c-4.38 0-6.615 2.8-8.939 5.8-2.592 3.1-5.094 6.4-10.368 6.4z"/><path d="M174.204 46.7c-5.273 0-7.865-3.2-10.368-6.4-2.324-3-4.558-5.8-8.938-5.8-4.38 0-6.614 2.8-8.938 5.8-2.503 3.1-5.095 6.4-10.368 6.4-5.274 0-7.866-3.2-10.369-6.4-2.324-3-4.558-5.8-8.938-5.8-4.38 0-6.614 2.8-8.938 5.8-2.503 3.1-5.095 6.4-10.368 6.4-5.274 0-7.866-3.2-10.368-6.4-2.324-3-4.559-5.8-8.939-5.8s-6.614 2.8-8.938 5.8c-2.502 3.1-5.094 6.4-10.368 6.4-5.273 0-7.865-3.2-10.279-6.4-2.324-3-4.558-5.8-8.938-5.8-4.38 0-6.614 2.8-8.938 5.8-2.503 3.1-5.095 6.4-10.279 6.4-5.273 0-7.865-3.2-10.368-6.4-2.324-3-4.559-5.8-8.938-5.8v-1.2c5.273 0 7.865 3.2 10.368 6.4 2.324 3 4.558 5.8 8.938 5.8 4.38 0 6.614-2.8 8.938-5.8 2.503-3.1 5.095-6.4 10.279-6.4 5.273 0 7.866 3.2 10.279 6.4 2.324 3 4.558 5.8 8.938 5.8 4.38 0 6.614-2.8 8.938-5.8 2.503-3.1 5.095-6.4 10.368-6.4 5.274 0 7.866 3.2 10.369 6.4 2.324 3 4.558 5.8 8.938 5.8 4.379 0 6.614-2.8 8.938-5.8 2.503-3.1 5.095-6.4 10.368-6.4 5.274 0 7.866 3.2 10.368 6.4 2.324 3 4.559 5.8 8.939 5.8 4.379 0 6.614-2.8 8.938-5.8 2.502-3.1 5.094-6.4 10.368-6.4 5.273 0 7.865 3.2 10.368 6.4 2.324 3 4.559 5.8 8.938 5.8 4.38 0 6.614-2.8 8.938-5.8 2.503-3.1 5.095-6.4 10.369-6.4v1.2c-4.38 0-6.615 2.8-8.939 5.8-2.592 3.1-5.094 6.4-10.368 6.4z"/><path d="M174.204 57.4c-5.273 0-7.865-3.2-10.368-6.4-2.324-3-4.558-5.8-8.938-5.8-4.38 0-6.614 2.8-8.938 5.8-2.503 3.1-5.095 6.4-10.368 6.4-5.274 0-7.866-3.2-10.369-6.4-2.324-3-4.558-5.8-8.938-5.8-4.38 0-6.614 2.8-8.938 5.8-2.503 3.1-5.095 6.4-10.368 6.4-5.274 0-7.866-3.2-10.368-6.4-2.324-3-4.559-5.8-8.939-5.8S71.058 48 68.734 51c-2.502 3.1-5.094 6.4-10.368 6.4-5.273 0-7.865-3.2-10.279-6.4-2.324-3-4.558-5.8-8.938-5.8-4.38 0-6.614 2.8-8.938 5.8-2.503 3.1-5.095 6.4-10.279 6.4-5.273 0-7.865-3.2-10.368-6.4-2.324-3-4.559-5.8-8.938-5.8V44c5.273 0 7.865 3.2 10.368 6.4 2.324 3 4.558 5.8 8.938 5.8 4.38 0 6.614-2.8 8.938-5.8 2.413-3.1 4.916-6.4 10.19-6.4 5.273 0 7.865 3.2 10.279 6.4 2.323 3 4.558 5.8 8.938 5.8 4.38 0 6.614-2.8 8.938-5.8 2.592-3.1 5.184-6.4 10.457-6.4 5.274 0 7.866 3.2 10.369 6.4 2.324 3 4.558 5.8 8.938 5.8 4.379 0 6.614-2.8 8.938-5.8 2.503-3.1 5.095-6.4 10.368-6.4 5.274 0 7.866 3.2 10.368 6.4 2.324 3 4.559 5.8 8.939 5.8 4.379 0 6.614-2.8 8.938-5.8 2.502-3.1 5.094-6.4 10.368-6.4 5.273 0 7.865 3.2 10.368 6.4 2.324 3 4.559 5.8 8.938 5.8 4.38 0 6.614-2.8 8.938-5.8 2.503-3.1 5.095-6.4 10.369-6.4v1.2c-4.38 0-6.615 2.8-8.939 5.8-2.592 3.2-5.094 6.4-10.368 6.4z"/><path d="M174.204 68.2c-5.273 0-7.865-3.2-10.368-6.4-2.324-3-4.558-5.8-8.938-5.8-4.38 0-6.614 2.8-8.938 5.8-2.503 3.1-5.095 6.4-10.368 6.4-5.274 0-7.866-3.2-10.369-6.4-2.324-3-4.558-5.8-8.938-5.8-4.379 0-6.614 2.8-8.938 5.8-2.503 3.1-5.095 6.4-10.368 6.4-5.274 0-7.866-3.2-10.279-6.3-2.324-3-4.559-5.8-8.938-5.8-4.38 0-6.614 2.8-8.938 5.8-2.503 3.1-5.095 6.4-10.368 6.4-5.274 0-7.866-3.2-10.28-6.4-2.323-3-4.558-5.8-8.938-5.8-4.38 0-6.614 2.8-8.938 5.8-2.502 3.1-5.094 6.4-10.279 6.4-5.273 0-7.865-3.2-10.368-6.4-2.324-3-4.558-5.8-8.938-5.8v-1.2c5.274 0 7.866 3.2 10.368 6.4 2.324 3 4.559 5.8 8.938 5.8 4.38 0 6.615-2.8 8.939-5.8 2.502-3.1 5.094-6.4 10.279-6.4 5.273 0 7.865 3.2 10.278 6.4 2.324 3 4.559 5.8 8.938 5.8 4.38 0 6.615-2.8 8.939-5.8 2.502-3.1 5.094-6.4 10.368-6.4 5.273 0 7.865 3.2 10.368 6.4 2.324 3 4.559 5.8 8.938 5.8 4.38 0 6.614-2.8 8.938-5.8 2.503-3.1 5.095-6.4 10.369-6.4 5.273 0 7.865 3.2 10.368 6.4 2.324 3 4.558 5.8 8.938 5.8 4.38 0 6.614-2.8 8.938-5.8 2.503-3.1 5.095-6.4 10.368-6.4 5.274 0 7.866 3.2 10.369 6.4 2.323 3 4.558 5.8 8.938 5.8 4.379 0 6.614-2.8 8.938-5.8 2.503-3.1 5.095-6.4 10.368-6.4v1.2c-4.38 0-6.614 2.8-8.938 5.8-2.682 3.1-5.184 6.3-10.458 6.3z"/><path d="M174.204 79c-5.273 0-7.865-3.2-10.368-6.4-2.324-3-4.558-5.8-8.938-5.8-4.38 0-6.614 2.8-8.938 5.8-2.503 3.1-5.095 6.4-10.369 6.4-5.273 0-7.865-3.2-10.368-6.4-2.324-3-4.558-5.8-8.938-5.8-4.38 0-6.614 2.8-8.938 5.8-2.503 3.1-5.095 6.4-10.368 6.4-5.274 0-7.866-3.2-10.368-6.4-2.324-3-4.559-5.8-8.939-5.8s-6.614 2.8-8.938 5.8C66.232 75.7 63.64 79 58.366 79c-5.273 0-7.865-3.2-10.279-6.4-2.324-3-4.558-5.8-8.938-5.8-4.38 0-6.614 2.8-8.938 5.8-2.592 3.2-5.184 6.4-10.368 6.4-5.274 0-7.866-3.2-10.369-6.4-2.323-3-4.558-5.8-8.938-5.8v-1.2c5.274 0 7.866 3.2 10.369 6.4 2.323 3 4.558 5.8 8.938 5.8 4.38 0 6.614-2.8 8.938-5.8 2.503-3.1 5.095-6.4 10.279-6.4 5.273 0 7.865 3.2 10.279 6.4 2.323 3 4.558 5.8 8.938 5.8 4.38 0 6.614-2.8 8.938-5.8 2.502-3.1 5.094-6.4 10.368-6.4 5.273 0 7.866 3.2 10.368 6.4 2.324 3 4.559 5.8 8.938 5.8 4.38 0 6.615-2.8 8.939-5.8 2.502-3.1 5.094-6.4 10.368-6.4 5.273 0 7.865 3.2 10.368 6.4 2.324 3 4.558 5.8 8.938 5.8 4.38 0 6.614-2.8 8.938-5.8 2.503-3.1 5.095-6.4 10.368-6.4 5.274 0 7.866 3.2 10.369 6.4 2.324 3 4.558 5.8 8.938 5.8 4.38 0 6.614-2.8 8.938-5.8 2.503-3.1 5.095-6.4 10.368-6.4v1.2c-4.379 0-6.614 2.8-8.938 5.8-2.503 3.2-5.005 6.4-10.279 6.4z"/><path d="M174.204 89.8c-5.273 0-7.865-3.2-10.368-6.4-2.324-3-4.558-5.8-8.938-5.8-4.38 0-6.614 2.8-8.938 5.8-2.503 3.1-5.095 6.4-10.368 6.4-5.274 0-7.866-3.2-10.369-6.4-2.324-3-4.558-5.8-8.938-5.8-4.38 0-6.614 2.8-8.938 5.8-2.503 3.1-5.095 6.4-10.368 6.4-5.274 0-7.866-3.2-10.368-6.4-2.324-3-4.559-5.8-8.939-5.8s-6.614 2.8-8.938 5.8c-2.502 3.1-5.094 6.4-10.368 6.4-5.273 0-7.865-3.2-10.279-6.4-2.324-3-4.558-5.8-8.938-5.8-4.38 0-6.614 2.8-8.938 5.8-2.503 3.1-5.095 6.4-10.279 6.4-5.273 0-7.865-3.2-10.368-6.4-2.324-3-4.559-5.8-8.938-5.8v-1.2c5.273 0 7.865 3.2 10.368 6.4 2.324 3 4.558 5.8 8.938 5.8 4.38 0 6.614-2.8 8.938-5.8 2.503-3.1 5.095-6.4 10.279-6.4 5.273 0 7.866 3.2 10.279 6.4 2.324 3 4.558 5.8 8.938 5.8 4.38 0 6.614-2.8 8.938-5.8 2.503-3.1 5.095-6.4 10.368-6.4 5.274 0 7.866 3.2 10.369 6.4 2.324 3 4.558 5.8 8.938 5.8 4.379 0 6.614-2.8 8.938-5.8 2.503-3.1 5.095-6.4 10.368-6.4 5.274 0 7.866 3.2 10.368 6.4 2.324 3 4.559 5.8 8.939 5.8 4.379 0 6.614-2.8 8.938-5.8 2.502-3.1 5.094-6.4 10.368-6.4 5.273 0 7.865 3.2 10.368 6.4 2.324 3 4.559 5.8 8.938 5.8 4.38 0 6.614-2.8 8.938-5.8 2.503-3.1 5.095-6.4 10.369-6.4v1.2c-4.38 0-6.615 2.8-8.939 5.8-2.592 3.2-5.094 6.4-10.368 6.4z"/><path d="M174.204 100.6c-5.273 0-7.865-3.2-10.368-6.4-2.324-3-4.558-5.8-8.938-5.8-4.38 0-6.614 2.8-8.938 5.8-2.503 3.1-5.095 6.4-10.368 6.4-5.274 0-7.866-3.2-10.369-6.4-2.324-3-4.558-5.8-8.938-5.8-4.38 0-6.614 2.8-8.938 5.8-2.503 3.1-5.095 6.4-10.368 6.4-5.274 0-7.866-3.2-10.368-6.4-2.324-3-4.559-5.8-8.939-5.8s-6.614 2.8-8.938 5.8c-2.502 3.1-5.094 6.4-10.368 6.4-5.273 0-7.865-3.2-10.279-6.4-2.324-3-4.558-5.8-8.938-5.8-4.38 0-6.614 2.8-8.938 5.8-2.503 3.1-5.095 6.4-10.279 6.4-5.273 0-7.865-3.2-10.368-6.4-2.324-3-4.559-5.8-8.938-5.8v-1.2c5.273 0 7.865 3.2 10.368 6.4 2.324 3 4.558 5.8 8.938 5.8 4.38 0 6.614-2.8 8.938-5.8 2.503-3.1 5.095-6.4 10.279-6.4 5.273 0 7.866 3.2 10.279 6.4 2.324 3 4.558 5.8 8.938 5.8 4.38 0 6.614-2.8 8.938-5.8 2.503-3.1 5.095-6.4 10.368-6.4 5.274 0 7.866 3.2 10.369 6.4 2.324 3 4.558 5.8 8.938 5.8 4.379 0 6.614-2.8 8.938-5.8 2.503-3.1 5.095-6.4 10.368-6.4 5.274 0 7.866 3.2 10.368 6.4 2.324 3 4.559 5.8 8.939 5.8 4.379 0 6.614-2.8 8.938-5.8 2.502-3.1 5.094-6.4 10.368-6.4 5.273 0 7.865 3.2 10.368 6.4 2.324 3 4.559 5.8 8.938 5.8 4.38 0 6.614-2.8 8.938-5.8 2.503-3.1 5.095-6.4 10.369-6.4v1.2c-4.38 0-6.615 2.8-8.939 5.8-2.592 3.2-5.094 6.4-10.368 6.4z"/><path d="M174.204 111.4c-5.273 0-7.865-3.2-10.368-6.4-2.324-3-4.558-5.8-8.938-5.8-4.38 0-6.614 2.8-8.938 5.8-2.503 3.1-5.095 6.4-10.368 6.4-5.274 0-7.866-3.2-10.369-6.4-2.324-3-4.558-5.8-8.938-5.8-4.38 0-6.614 2.8-8.938 5.8-2.503 3.1-5.095 6.4-10.368 6.4-5.274 0-7.866-3.2-10.368-6.4-2.324-3-4.559-5.8-8.939-5.8s-6.614 2.8-8.938 5.8c-2.502 3.1-5.094 6.4-10.368 6.4-5.273 0-7.865-3.2-10.279-6.4-2.324-3-4.558-5.8-8.938-5.8-4.38 0-6.614 2.8-8.938 5.8-2.503 3.1-5.095 6.4-10.279 6.4-5.273 0-7.865-3.2-10.368-6.4-2.324-3-4.559-5.8-8.938-5.8V98c5.273 0 7.865 3.2 10.368 6.4 2.324 3 4.558 5.8 8.938 5.8 4.38 0 6.614-2.8 8.938-5.8 2.503-3.1 5.095-6.4 10.279-6.4 5.273 0 7.866 3.2 10.279 6.4 2.324 3 4.558 5.8 8.938 5.8 4.38 0 6.614-2.8 8.938-5.8 2.503-3.1 5.095-6.4 10.368-6.4 5.274 0 7.866 3.2 10.369 6.4 2.324 3 4.558 5.8 8.938 5.8 4.379 0 6.614-2.8 8.938-5.8 2.503-3.1 5.095-6.4 10.368-6.4 5.274 0 7.866 3.2 10.368 6.4 2.324 3 4.559 5.8 8.939 5.8 4.379 0 6.614-2.8 8.938-5.8 2.502-3.1 5.094-6.4 10.368-6.4 5.273 0 7.865 3.2 10.368 6.4 2.324 3 4.559 5.8 8.938 5.8 4.38 0 6.614-2.8 8.938-5.8 2.503-3.1 5.095-6.4 10.369-6.4v1.2c-4.38 0-6.615 2.8-8.939 5.8-2.592 3.2-5.094 6.4-10.368 6.4z"/><path d="M174.204 122.2c-5.273 0-7.865-3.2-10.368-6.4-2.324-3-4.558-5.8-8.938-5.8-4.38 0-6.614 2.8-8.938 5.8-2.503 3.1-5.095 6.4-10.368 6.4-5.274 0-7.866-3.2-10.369-6.4-2.324-3-4.558-5.8-8.938-5.8-4.38 0-6.614 2.8-8.938 5.8-2.503 3.1-5.095 6.4-10.368 6.4-5.274 0-7.866-3.2-10.368-6.4-2.324-3-4.559-5.8-8.939-5.8s-6.614 2.8-8.938 5.8c-2.502 3.1-5.094 6.4-10.368 6.4-5.273 0-7.865-3.2-10.279-6.4-2.324-3-4.558-5.8-8.938-5.8-4.38 0-6.614 2.8-8.938 5.8-2.503 3.1-5.095 6.4-10.279 6.4-5.273 0-7.865-3.2-10.368-6.4-2.324-3-4.559-5.8-8.938-5.8v-1.2c5.273 0 7.865 3.2 10.368 6.4 2.324 3 4.558 5.8 8.938 5.8 4.38 0 6.614-2.8 8.938-5.8 2.503-3.1 5.095-6.4 10.279-6.4 5.273 0 7.866 3.2 10.279 6.4 2.324 3 4.558 5.8 8.938 5.8 4.38 0 6.614-2.8 8.938-5.8 2.503-3.1 5.095-6.4 10.368-6.4 5.274 0 7.866 3.2 10.369 6.4 2.324 3 4.558 5.8 8.938 5.8 4.379 0 6.614-2.8 8.938-5.8 2.503-3.1 5.095-6.4 10.368-6.4 5.274 0 7.866 3.2 10.368 6.4 2.324 3 4.559 5.8 8.939 5.8 4.379 0 6.614-2.8 8.938-5.8 2.502-3.1 5.094-6.4 10.368-6.4 5.273 0 7.865 3.2 10.368 6.4 2.324 3 4.559 5.8 8.938 5.8 4.38 0 6.614-2.8 8.938-5.8 2.503-3.1 5.095-6.4 10.369-6.4v1.2c-4.38 0-6.615 2.8-8.939 5.8-2.592 3.2-5.094 6.4-10.368 6.4zm-.536-108.8c-5.274 0-7.866-3.2-10.368-6.4-2.324-3-4.559-5.8-8.938-5.8-4.38 0-6.615 2.8-8.939 5.8-2.502 3.1-5.094 6.4-10.368 6.4-5.273 0-7.865-3.2-10.368-6.4-2.324-3-4.558-5.8-8.938-5.8-4.38 0-6.614 2.8-8.938 5.8-2.503 3.1-5.095 6.4-10.369 6.4-5.273 0-7.776-3.2-10.278-6.4-2.324-3-4.559-5.8-8.939-5.8-4.469 0-6.614 2.8-9.027 5.8-2.503 3.1-5.095 6.4-10.368 6.4-5.274 0-7.866-3.2-10.28-6.4-2.323-3-4.557-5.8-8.937-5.8-4.38 0-6.614 2.8-8.938 5.8-2.503 3.1-5.095 6.4-10.28 6.4-5.273 0-7.865-3.2-10.367-6.4C6.614 4 4.38 1.2 0 1.2V0c5.274 0 7.866 3.2 10.368 6.4 2.324 3 4.559 5.8 8.938 5.8 4.38 0 6.615-2.8 8.938-5.8C30.747 3.2 33.34 0 38.614 0c5.273 0 7.865 3.2 10.279 6.4 2.323 3 4.558 5.8 8.938 5.8 4.38 0 6.614-2.8 8.938-5.8C69.36 3.2 71.952 0 77.136 0c5.274 0 7.866 3.2 10.368 6.4 2.324 3 4.559 5.8 8.938 5.8 4.38 0 6.615-2.8 8.939-5.8 2.502-3.1 5.094-6.4 10.368-6.4 5.273 0 7.865 3.2 10.368 6.4 2.324 3 4.559 5.8 8.938 5.8 4.38 0 6.614-2.8 8.938-5.8 2.503-3.1 5.095-6.4 10.369-6.4 5.273 0 7.865 3.2 10.368 6.4 2.324 3 4.558 5.8 8.938 5.8 4.38 0 6.614-2.8 8.938-5.8 2.503-3.2 5.095-6.4 10.368-6.4v1.2c-4.379 0-6.614 2.8-8.938 5.8-2.502 3.2-5.095 6.4-10.368 6.4z"/><path d="M173.668 24.2c-5.273 0-7.866-3.2-10.368-6.4-2.324-3-4.559-5.8-8.938-5.8-4.38 0-6.615 2.8-8.939 5.8-2.502 3.1-5.094 6.4-10.368 6.4-5.273 0-7.865-3.2-10.368-6.4-2.324-3-4.558-5.8-8.938-5.8-4.38 0-6.614 2.8-8.938 5.8-2.503 3.1-5.095 6.4-10.369 6.4-5.273 0-7.865-3.2-10.368-6.4-2.324-3-4.558-5.8-8.938-5.8-4.38 0-6.614 2.8-8.938 5.8-2.503 3.1-5.095 6.4-10.368 6.4-5.274 0-7.866-3.2-10.28-6.4-2.323-3-4.557-5.8-8.937-5.8-4.38 0-6.614 2.8-8.938 5.8-2.503 3.1-5.095 6.4-10.28 6.4-5.273 0-7.865-3.2-10.367-6.4C6.614 14.8 4.38 12 0 12v-1.2c5.274 0 7.866 3.2 10.368 6.4 2.324 3 4.559 5.8 8.938 5.8 4.38 0 6.615-2.8 8.938-5.8 2.503-3.1 5.095-6.4 10.28-6.4 5.273 0 7.865 3.2 10.278 6.4 2.324 3 4.559 5.8 8.938 5.8 4.38 0 6.615-2.8 8.938-5.8 2.503-3.1 5.095-6.4 10.369-6.4 5.273 0 7.865 3.2 10.368 6.4 2.324 3 4.558 5.8 8.938 5.8 4.38 0 6.614-2.8 8.938-5.8 2.503-3.1 5.095-6.4 10.368-6.4 5.274 0 7.866 3.2 10.369 6.4 2.324 3 4.558 5.8 8.938 5.8 4.38 0 6.614-2.8 8.938-5.8 2.503-3.1 5.095-6.4 10.368-6.4 5.274 0 7.866 3.2 10.368 6.4 2.324 3 4.559 5.8 8.939 5.8 4.379 0 6.614-2.8 8.938-5.8 2.502-3.1 5.094-6.4 10.368-6.4V12c-4.38 0-6.614 2.8-8.938 5.8-2.413 3.1-5.006 6.4-10.279 6.4z"/><path d="M173.668 35c-5.274 0-7.866-3.2-10.368-6.4-2.324-3-4.559-5.8-8.938-5.8-4.38 0-6.615 2.8-8.939 5.8-2.502 3.1-5.094 6.4-10.368 6.4-5.273 0-7.865-3.2-10.368-6.4-2.324-3-4.558-5.8-8.938-5.8-4.38 0-6.614 2.8-8.938 5.8-2.503 3.1-5.095 6.4-10.369 6.4-5.273 0-7.865-3.2-10.368-6.4-2.324-3-4.558-5.8-8.938-5.8-4.38 0-6.614 2.8-8.938 5.8-2.503 3.1-5.095 6.4-10.368 6.4-5.274 0-7.866-3.2-10.28-6.4-2.323-3-4.558-5.8-8.937-5.8-4.38 0-6.614 2.8-8.938 5.8-2.503 3.1-5.095 6.4-10.28 6.4-5.273 0-7.865-3.2-10.367-6.4-2.324-3-4.559-5.8-8.939-5.8v-1.2c5.274 0 7.866 3.2 10.369 6.4 2.323 3 4.558 5.8 8.938 5.8 4.38 0 6.614-2.8 8.938-5.8 2.503-3.1 5.095-6.4 10.279-6.4 5.273 0 7.865 3.2 10.279 6.4 2.323 3 4.558 5.8 8.938 5.8 4.38 0 6.614-2.8 8.938-5.8 2.502-3.1 5.095-6.4 10.368-6.4 5.274 0 7.866 3.2 10.368 6.4 2.324 3 4.559 5.8 8.938 5.8 4.38 0 6.615-2.8 8.939-5.8 2.502-3.1 5.094-6.4 10.368-6.4 5.273 0 7.865 3.2 10.368 6.4 2.324 3 4.559 5.8 8.938 5.8 4.38 0 6.614-2.8 8.938-5.8 2.503-3.1 5.095-6.4 10.369-6.4 5.273 0 7.865 3.2 10.368 6.4 2.324 3 4.558 5.8 8.938 5.8 4.38 0 6.614-2.8 8.938-5.8 2.503-3.1 5.095-6.4 10.368-6.4v1.2c-4.379 0-6.614 2.8-8.938 5.8-2.502 3.1-5.095 6.4-10.368 6.4z"/><path d="M173.668 45.8c-5.274 0-7.866-3.2-10.368-6.4-2.324-3-4.559-5.8-8.938-5.8-4.38 0-6.615 2.8-8.939 5.8-2.502 3.1-5.094 6.4-10.368 6.4-5.273 0-7.865-3.2-10.368-6.4-2.324-3-4.558-5.8-8.938-5.8-4.38 0-6.614 2.8-8.938 5.8-2.503 3.1-5.095 6.4-10.369 6.4-5.273 0-7.865-3.2-10.368-6.4-2.324-3-4.558-5.8-8.938-5.8-4.38 0-6.614 2.8-8.938 5.8-2.503 3.1-5.095 6.4-10.368 6.4-5.274 0-7.866-3.2-10.28-6.4-2.323-3-4.558-5.8-8.937-5.8-4.38 0-6.614 2.8-8.938 5.8-2.503 3.1-5.095 6.4-10.28 6.4-5.273 0-7.865-3.2-10.367-6.4-2.324-3-4.559-5.8-8.939-5.8v-1.2c5.274 0 7.866 3.2 10.369 6.4 2.323 3 4.558 5.8 8.938 5.8 4.38 0 6.614-2.8 8.938-5.8 2.503-3.1 5.095-6.4 10.279-6.4 5.273 0 7.865 3.2 10.279 6.4 2.323 3 4.558 5.8 8.938 5.8 4.38 0 6.614-2.8 8.938-5.8 2.502-3.1 5.095-6.4 10.368-6.4 5.274 0 7.866 3.2 10.368 6.4 2.324 3 4.559 5.8 8.938 5.8 4.38 0 6.615-2.8 8.939-5.8 2.502-3.1 5.094-6.4 10.368-6.4 5.273 0 7.865 3.2 10.368 6.4 2.324 3 4.559 5.8 8.938 5.8 4.38 0 6.614-2.8 8.938-5.8 2.503-3.1 5.095-6.4 10.369-6.4 5.273 0 7.865 3.2 10.368 6.4 2.324 3 4.558 5.8 8.938 5.8 4.38 0 6.614-2.8 8.938-5.8 2.503-3.1 5.095-6.4 10.368-6.4v1.2c-4.379 0-6.614 2.8-8.938 5.8-2.502 3.1-5.095 6.4-10.368 6.4z"/><path d="M173.668 56.6c-5.274 0-7.866-3.2-10.368-6.4-2.324-3-4.559-5.8-8.938-5.8-4.38 0-6.615 2.8-8.939 5.8-2.502 3.1-5.094 6.4-10.368 6.4-5.273 0-7.865-3.2-10.368-6.4-2.324-3-4.558-5.8-8.938-5.8-4.38 0-6.614 2.8-8.938 5.8-2.503 3.1-5.095 6.4-10.369 6.4-5.273 0-7.865-3.2-10.368-6.4-2.324-3-4.558-5.8-8.938-5.8-4.38 0-6.614 2.8-8.938 5.8-2.503 3.1-5.095 6.4-10.368 6.4-5.274 0-7.866-3.2-10.28-6.4-2.323-3-4.558-5.8-8.937-5.8-4.38 0-6.614 2.8-8.938 5.8-2.503 3.1-5.095 6.4-10.28 6.4-5.273 0-7.865-3.2-10.367-6.4-2.324-3-4.559-5.8-8.939-5.8v-1.2c5.274 0 7.866 3.2 10.369 6.4 2.323 3 4.558 5.8 8.938 5.8 4.38 0 6.614-2.8 8.938-5.8 2.503-3.1 5.095-6.4 10.279-6.4 5.273 0 7.865 3.2 10.279 6.4 2.323 3 4.558 5.8 8.938 5.8 4.38 0 6.614-2.8 8.938-5.8 2.502-3.1 5.095-6.4 10.368-6.4 5.274 0 7.866 3.2 10.368 6.4 2.324 3 4.559 5.8 8.938 5.8 4.38 0 6.615-2.8 8.939-5.8 2.502-3.1 5.094-6.4 10.368-6.4 5.273 0 7.865 3.2 10.368 6.4 2.324 3 4.559 5.8 8.938 5.8 4.38 0 6.614-2.8 8.938-5.8 2.503-3.1 5.095-6.4 10.369-6.4 5.273 0 7.865 3.2 10.368 6.4 2.324 3 4.558 5.8 8.938 5.8 4.38 0 6.614-2.8 8.938-5.8 2.503-3.1 5.095-6.4 10.368-6.4v1.2c-4.379 0-6.614 2.8-8.938 5.8-2.502 3.1-5.095 6.4-10.368 6.4z"/><path d="M173.668 67.4c-5.274 0-7.866-3.2-10.368-6.4-2.324-3-4.559-5.8-8.938-5.8-4.38 0-6.615 2.8-8.939 5.8-2.502 3.1-5.094 6.4-10.368 6.4-5.273 0-7.865-3.2-10.368-6.4-2.324-3-4.558-5.8-8.938-5.8-4.38 0-6.614 2.8-8.938 5.8-2.503 3.1-5.095 6.4-10.369 6.4-5.273 0-7.865-3.2-10.368-6.4-2.324-3-4.558-5.8-8.938-5.8-4.38 0-6.614 2.8-8.938 5.8-2.503 3.1-5.095 6.4-10.368 6.4-5.274 0-7.866-3.2-10.28-6.4-2.323-3-4.558-5.8-8.937-5.8-4.38 0-6.614 2.8-8.938 5.8-2.503 3.1-5.095 6.4-10.28 6.4-5.273 0-7.865-3.2-10.367-6.4-2.324-3-4.559-5.8-8.939-5.8V54c5.274 0 7.866 3.2 10.369 6.4 2.323 3 4.558 5.8 8.938 5.8 4.38 0 6.614-2.8 8.938-5.8 2.503-3.1 5.095-6.4 10.279-6.4 5.273 0 7.865 3.2 10.279 6.4 2.323 3 4.558 5.8 8.938 5.8 4.38 0 6.614-2.8 8.938-5.8 2.502-3.1 5.095-6.4 10.368-6.4 5.274 0 7.866 3.2 10.368 6.4 2.324 3 4.559 5.8 8.938 5.8 4.38 0 6.615-2.8 8.939-5.8 2.502-3.1 5.094-6.4 10.368-6.4 5.273 0 7.865 3.2 10.368 6.4 2.324 3 4.559 5.8 8.938 5.8 4.38 0 6.614-2.8 8.938-5.8 2.503-3.1 5.095-6.4 10.369-6.4 5.273 0 7.865 3.2 10.368 6.4 2.324 3 4.558 5.8 8.938 5.8 4.38 0 6.614-2.8 8.938-5.8 2.503-3.1 5.095-6.4 10.368-6.4v1.2c-4.379 0-6.614 2.8-8.938 5.8-2.502 3.1-5.095 6.4-10.368 6.4z"/><path d="M173.668 78.2c-5.273 0-7.866-3.2-10.368-6.4-2.324-3-4.559-5.8-8.938-5.8-4.38 0-6.615 2.8-8.939 5.8-2.502 3.1-5.094 6.4-10.368 6.4-5.273 0-7.865-3.2-10.368-6.4-2.324-3-4.558-5.8-8.938-5.8-4.38 0-6.614 2.8-8.938 5.8-2.503 3.1-5.095 6.4-10.369 6.4-5.273 0-7.865-3.2-10.368-6.4-2.324-3-4.558-5.8-8.938-5.8-4.38 0-6.614 2.8-8.938 5.8-2.503 3.1-5.095 6.4-10.368 6.4-5.274 0-7.866-3.2-10.28-6.4-2.323-3-4.557-5.8-8.937-5.8-4.38 0-6.614 2.8-8.938 5.8-2.503 3.1-5.095 6.4-10.28 6.4-5.273 0-7.865-3.2-10.367-6.4C6.614 68.8 4.38 66 0 66v-1.2c5.274 0 7.866 3.2 10.368 6.4 2.324 3 4.559 5.8 8.938 5.8 4.38 0 6.615-2.8 8.938-5.8 2.503-3.1 5.095-6.4 10.28-6.4 5.273 0 7.865 3.2 10.278 6.4 2.324 3 4.559 5.8 8.938 5.8 4.38 0 6.615-2.8 8.938-5.8 2.503-3.1 5.095-6.4 10.369-6.4 5.273 0 7.865 3.2 10.368 6.4 2.324 3 4.558 5.8 8.938 5.8 4.38 0 6.614-2.8 8.938-5.8 2.503-3.1 5.095-6.4 10.368-6.4 5.274 0 7.866 3.2 10.369 6.4 2.324 3 4.558 5.8 8.938 5.8 4.38 0 6.614-2.8 8.938-5.8 2.503-3.1 5.095-6.4 10.368-6.4 5.274 0 7.866 3.2 10.368 6.4 2.324 3 4.559 5.8 8.939 5.8 4.379 0 6.614-2.8 8.938-5.8 2.502-3.1 5.094-6.4 10.368-6.4V66c-4.38 0-6.614 2.8-8.938 5.8-2.413 3.1-5.006 6.4-10.279 6.4z"/><path d="M173.668 89c-5.274 0-7.866-3.2-10.368-6.4-2.324-3-4.559-5.8-8.938-5.8-4.38 0-6.615 2.8-8.939 5.8-2.502 3.1-5.094 6.4-10.368 6.4-5.273 0-7.865-3.2-10.368-6.4-2.324-3-4.558-5.8-8.938-5.8-4.38 0-6.614 2.8-8.938 5.8-2.503 3.1-5.095 6.4-10.369 6.4-5.273 0-7.865-3.2-10.368-6.4-2.324-3-4.558-5.8-8.938-5.8-4.38 0-6.614 2.8-8.938 5.8-2.503 3.1-5.095 6.4-10.368 6.4-5.274 0-7.866-3.2-10.28-6.4-2.323-3-4.558-5.8-8.937-5.8-4.38 0-6.614 2.8-8.938 5.8-2.503 3.1-5.095 6.4-10.28 6.4-5.273 0-7.865-3.2-10.367-6.4-2.324-3-4.559-5.8-8.939-5.8v-1.2c5.274 0 7.866 3.2 10.369 6.4 2.323 3 4.558 5.8 8.938 5.8 4.38 0 6.614-2.8 8.938-5.8 2.503-3.1 5.095-6.4 10.279-6.4 5.273 0 7.865 3.2 10.279 6.4 2.323 3 4.558 5.8 8.938 5.8 4.38 0 6.614-2.8 8.938-5.8 2.502-3.1 5.095-6.4 10.368-6.4 5.274 0 7.866 3.2 10.368 6.4 2.324 3 4.559 5.8 8.938 5.8 4.38 0 6.615-2.8 8.939-5.8 2.502-3.1 5.094-6.4 10.368-6.4 5.273 0 7.865 3.2 10.368 6.4 2.324 3 4.559 5.8 8.938 5.8 4.38 0 6.614-2.8 8.938-5.8 2.503-3.1 5.095-6.4 10.369-6.4 5.273 0 7.865 3.2 10.368 6.4 2.324 3 4.558 5.8 8.938 5.8 4.38 0 6.614-2.8 8.938-5.8 2.503-3.1 5.095-6.4 10.368-6.4v1.2c-4.379 0-6.614 2.8-8.938 5.8-2.502 3.1-5.095 6.4-10.368 6.4z"/><path d="M173.668 99.8c-5.274 0-7.866-3.2-10.368-6.4-2.324-3-4.559-5.8-8.938-5.8-4.38 0-6.615 2.8-8.939 5.8-2.502 3.1-5.094 6.4-10.368 6.4-5.273 0-7.865-3.2-10.368-6.4-2.324-3-4.558-5.8-8.938-5.8-4.38 0-6.614 2.8-8.938 5.8-2.503 3.1-5.095 6.4-10.369 6.4-5.273 0-7.865-3.2-10.368-6.4-2.324-3-4.558-5.8-8.938-5.8-4.38 0-6.614 2.8-8.938 5.8-2.503 3.1-5.095 6.4-10.368 6.4-5.274 0-7.866-3.2-10.28-6.4-2.323-3-4.558-5.8-8.937-5.8-4.38 0-6.614 2.8-8.938 5.8-2.503 3.1-5.095 6.4-10.28 6.4-5.273 0-7.865-3.2-10.367-6.4-2.324-3-4.559-5.8-8.939-5.8v-1.2c5.274 0 7.866 3.2 10.369 6.4 2.323 3 4.558 5.8 8.938 5.8 4.38 0 6.614-2.8 8.938-5.8 2.503-3.1 5.095-6.4 10.279-6.4 5.273 0 7.865 3.2 10.279 6.4 2.323 3 4.558 5.8 8.938 5.8 4.38 0 6.614-2.8 8.938-5.8 2.502-3.1 5.095-6.4 10.368-6.4 5.274 0 7.866 3.2 10.368 6.4 2.324 3 4.559 5.8 8.938 5.8 4.38 0 6.615-2.8 8.939-5.8 2.502-3.1 5.094-6.4 10.368-6.4 5.273 0 7.865 3.2 10.368 6.4 2.324 3 4.559 5.8 8.938 5.8 4.38 0 6.614-2.8 8.938-5.8 2.503-3.1 5.095-6.4 10.369-6.4 5.273 0 7.865 3.2 10.368 6.4 2.324 3 4.558 5.8 8.938 5.8 4.38 0 6.614-2.8 8.938-5.8 2.503-3.1 5.095-6.4 10.368-6.4v1.2c-4.379 0-6.614 2.8-8.938 5.8-2.502 3.1-5.095 6.4-10.368 6.4z"/><path d="M173.668 110.6c-5.274 0-7.866-3.2-10.368-6.4-2.324-3-4.559-5.8-8.938-5.8-4.38 0-6.615 2.8-8.939 5.8-2.502 3.1-5.094 6.4-10.368 6.4-5.273 0-7.865-3.2-10.368-6.4-2.324-3-4.558-5.8-8.938-5.8-4.38 0-6.614 2.8-8.938 5.8-2.503 3.1-5.095 6.4-10.369 6.4-5.273 0-7.865-3.2-10.368-6.4-2.324-3-4.558-5.8-8.938-5.8-4.38 0-6.614 2.8-8.938 5.8-2.503 3.1-5.095 6.4-10.368 6.4-5.274 0-7.866-3.2-10.28-6.4-2.323-3-4.558-5.8-8.937-5.8-4.38 0-6.614 2.8-8.938 5.8-2.503 3.1-5.095 6.4-10.28 6.4-5.273 0-7.865-3.2-10.367-6.4-2.324-3-4.559-5.8-8.939-5.8v-1.2c5.274 0 7.866 3.2 10.369 6.4 2.323 3 4.558 5.8 8.938 5.8 4.38 0 6.614-2.8 8.938-5.8 2.503-3.1 5.095-6.4 10.279-6.4 5.273 0 7.865 3.2 10.279 6.4 2.323 3 4.558 5.8 8.938 5.8 4.38 0 6.614-2.8 8.938-5.8 2.502-3.1 5.095-6.4 10.368-6.4 5.274 0 7.866 3.2 10.368 6.4 2.324 3 4.559 5.8 8.938 5.8 4.38 0 6.615-2.8 8.939-5.8 2.502-3.1 5.094-6.4 10.368-6.4 5.273 0 7.865 3.2 10.368 6.4 2.324 3 4.559 5.8 8.938 5.8 4.38 0 6.614-2.8 8.938-5.8 2.503-3.1 5.095-6.4 10.369-6.4 5.273 0 7.865 3.2 10.368 6.4 2.324 3 4.558 5.8 8.938 5.8 4.38 0 6.614-2.8 8.938-5.8 2.503-3.1 5.095-6.4 10.368-6.4v1.2c-4.379 0-6.614 2.8-8.938 5.8-2.502 3.1-5.095 6.4-10.368 6.4z"/><path d="M173.668 121.3c-5.274 0-7.866-3.2-10.368-6.4-2.324-3-4.559-5.8-8.938-5.8-4.38 0-6.615 2.8-8.939 5.8-2.502 3.1-5.094 6.4-10.368 6.4-5.273 0-7.865-3.2-10.368-6.4-2.324-3-4.558-5.8-8.938-5.8-4.38 0-6.614 2.8-8.938 5.8-2.503 3.1-5.095 6.4-10.369 6.4-5.273 0-7.865-3.2-10.368-6.4-2.324-3-4.558-5.8-8.938-5.8-4.38 0-6.614 2.8-8.938 5.8-2.503 3.1-5.095 6.4-10.368 6.4-5.274 0-7.866-3.2-10.28-6.4-2.323-3-4.558-5.8-8.937-5.8-4.38 0-6.614 2.8-8.938 5.8-2.503 3.1-5.095 6.4-10.28 6.4-5.273 0-7.865-3.2-10.367-6.4-2.324-3-4.559-5.8-8.939-5.8v-1.2c5.274 0 7.866 3.2 10.369 6.4 2.323 3 4.558 5.8 8.938 5.8 4.38 0 6.614-2.8 8.938-5.8 2.503-3.1 5.095-6.4 10.279-6.4 5.273 0 7.865 3.2 10.279 6.4 2.323 3 4.558 5.8 8.938 5.8 4.38 0 6.614-2.8 8.938-5.8 2.502-3.1 5.095-6.4 10.368-6.4 5.274 0 7.866 3.2 10.368 6.4 2.324 3 4.559 5.8 8.938 5.8 4.38 0 6.615-2.8 8.939-5.8 2.502-3.1 5.094-6.4 10.368-6.4 5.273 0 7.865 3.2 10.368 6.4 2.324 3 4.559 5.8 8.938 5.8 4.38 0 6.614-2.8 8.938-5.8 2.503-3.1 5.095-6.4 10.369-6.4 5.273 0 7.865 3.2 10.368 6.4 2.324 3 4.558 5.8 8.938 5.8 4.38 0 6.614-2.8 8.938-5.8 2.503-3.1 5.095-6.4 10.368-6.4v1.2c-4.379 0-6.614 2.8-8.938 5.8-2.502 3.2-5.095 6.4-10.368 6.4z"/></g></svg>