<svg width="302" height="347" fill="none" xmlns="http://www.w3.org/2000/svg"><path d="M302 2.815v1.492h-1.953v2.238h-1.301V4.307h-1.953V2.815h1.953V.577h1.301v2.238H302zm0 17.905v1.493h-1.953v2.238h-1.301v-2.238h-1.953V20.72h1.953v-2.239h1.301v2.239H302zm0 17.906v1.492h-1.953v2.238h-1.301v-2.238h-1.953v-1.492h1.953v-2.238h1.301v2.238H302zm0 17.906v1.492h-1.953v2.238h-1.301v-2.238h-1.953v-1.492h1.953v-2.239h1.301v2.239H302zm0 17.905v1.492h-1.953v2.239h-1.301v-2.239h-1.953v-1.492h1.953V72.2h1.301v2.238H302zm0 17.906v1.492h-1.953v2.238h-1.301v-2.238h-1.953v-1.492h1.953v-2.238h1.301v2.238H302zm0 17.905v1.493h-1.953v2.238h-1.301v-2.238h-1.953v-1.493h1.953v-2.238h1.301v2.238H302zm0 17.906v1.492h-1.953v2.238h-1.301v-2.238h-1.953v-1.492h1.953v-2.238h1.301v2.238H302zm0 17.906v1.492h-1.953v2.238h-1.301v-2.238h-1.953v-1.492h1.953v-2.239h1.301v2.239H302zm0 17.905v1.492h-1.953v2.239h-1.301v-2.239h-1.953v-1.492h1.953v-2.238h1.301v2.238H302zm0 17.906v1.492h-1.953v2.238h-1.301v-2.238h-1.953v-1.492h1.953v-2.238h1.301v2.238H302zm0 17.905v1.493h-1.953v2.238h-1.301v-2.238h-1.953v-1.493h1.953v-2.238h1.301v2.238H302zm0 17.906v1.492h-1.953v2.238h-1.301v-2.238h-1.953v-1.492h1.953v-2.238h1.301v2.238H302zm0 17.906v1.492h-1.953v2.238h-1.301v-2.238h-1.953v-1.492h1.953v-2.239h1.301v2.239H302zm0 17.905v1.492h-1.953v2.239h-1.301v-2.239h-1.953v-1.492h1.953v-2.238h1.301v2.238H302zm0 17.906v1.492h-1.953v2.238h-1.301v-2.238h-1.953v-1.492h1.953v-2.238h1.301v2.238H302zm0 17.905v1.492h-1.953v2.239h-1.301v-2.239h-1.953v-1.492h1.953v-2.238h1.301v2.238H302zm0 17.906v1.492h-1.953v2.238h-1.301v-2.238h-1.953v-1.492h1.953v-2.238h1.301v2.238H302zm0 17.906v1.492h-1.953v2.238h-1.301v-2.238h-1.953v-1.492h1.953v-2.239h1.301v2.239H302zm0 17.905v1.492h-1.953v2.238h-1.301v-2.238h-1.953v-1.492h1.953v-2.238h1.301v2.238H302zM286.38 2.815v1.492h-1.953v2.238h-1.302V4.307h-1.952V2.815h1.952V.577h1.302v2.238h1.953zm0 17.905v1.493h-1.953v2.238h-1.302v-2.238h-1.952V20.72h1.952v-2.239h1.302v2.239h1.953zm0 17.906v1.492h-1.953v2.238h-1.302v-2.238h-1.952v-1.492h1.952v-2.238h1.302v2.238h1.953zm0 17.906v1.492h-1.953v2.238h-1.302v-2.238h-1.952v-1.492h1.952v-2.239h1.302v2.239h1.953zm0 17.905v1.492h-1.953v2.239h-1.302v-2.239h-1.952v-1.492h1.952V72.2h1.302v2.238h1.953zm0 17.906v1.492h-1.953v2.238h-1.302v-2.238h-1.952v-1.492h1.952v-2.238h1.302v2.238h1.953zm0 17.905v1.493h-1.953v2.238h-1.302v-2.238h-1.952v-1.493h1.952v-2.238h1.302v2.238h1.953zm0 17.906v1.492h-1.953v2.238h-1.302v-2.238h-1.952v-1.492h1.952v-2.238h1.302v2.238h1.953zm0 17.906v1.492h-1.953v2.238h-1.302v-2.238h-1.952v-1.492h1.952v-2.239h1.302v2.239h1.953zm0 17.905v1.492h-1.953v2.239h-1.302v-2.239h-1.952v-1.492h1.952v-2.238h1.302v2.238h1.953zm0 17.906v1.492h-1.953v2.238h-1.302v-2.238h-1.952v-1.492h1.952v-2.238h1.302v2.238h1.953zm0 17.905v1.493h-1.953v2.238h-1.302v-2.238h-1.952v-1.493h1.952v-2.238h1.302v2.238h1.953zm0 17.906v1.492h-1.953v2.238h-1.302v-2.238h-1.952v-1.492h1.952v-2.238h1.302v2.238h1.953zm0 17.906v1.492h-1.953v2.238h-1.302v-2.238h-1.952v-1.492h1.952v-2.239h1.302v2.239h1.953zm0 17.905v1.492h-1.953v2.239h-1.302v-2.239h-1.952v-1.492h1.952v-2.238h1.302v2.238h1.953zm0 17.906v1.492h-1.953v2.238h-1.302v-2.238h-1.952v-1.492h1.952v-2.238h1.302v2.238h1.953zm0 17.905v1.492h-1.953v2.239h-1.302v-2.239h-1.952v-1.492h1.952v-2.238h1.302v2.238h1.953zm0 17.906v1.492h-1.953v2.238h-1.302v-2.238h-1.952v-1.492h1.952v-2.238h1.302v2.238h1.953zm0 17.906v1.492h-1.953v2.238h-1.302v-2.238h-1.952v-1.492h1.952v-2.239h1.302v2.239h1.953zm0 17.905v1.492h-1.953v2.238h-1.302v-2.238h-1.952v-1.492h1.952v-2.238h1.302v2.238h1.953zM270.759 2.815v1.492h-1.953v2.238h-1.302V4.307h-1.952V2.815h1.952V.577h1.302v2.238h1.953zm0 17.905v1.493h-1.953v2.238h-1.302v-2.238h-1.952V20.72h1.952v-2.239h1.302v2.239h1.953zm0 17.906v1.492h-1.953v2.238h-1.302v-2.238h-1.952v-1.492h1.952v-2.238h1.302v2.238h1.953zm0 17.906v1.492h-1.953v2.238h-1.302v-2.238h-1.952v-1.492h1.952v-2.239h1.302v2.239h1.953zm0 17.905v1.492h-1.953v2.239h-1.302v-2.239h-1.952v-1.492h1.952V72.2h1.302v2.238h1.953zm0 17.906v1.492h-1.953v2.238h-1.302v-2.238h-1.952v-1.492h1.952v-2.238h1.302v2.238h1.953zm0 17.905v1.493h-1.953v2.238h-1.302v-2.238h-1.952v-1.493h1.952v-2.238h1.302v2.238h1.953zm0 17.906v1.492h-1.953v2.238h-1.302v-2.238h-1.952v-1.492h1.952v-2.238h1.302v2.238h1.953zm0 17.906v1.492h-1.953v2.238h-1.302v-2.238h-1.952v-1.492h1.952v-2.239h1.302v2.239h1.953zm0 17.905v1.492h-1.953v2.239h-1.302v-2.239h-1.952v-1.492h1.952v-2.238h1.302v2.238h1.953zm0 17.906v1.492h-1.953v2.238h-1.302v-2.238h-1.952v-1.492h1.952v-2.238h1.302v2.238h1.953zm0 17.905v1.493h-1.953v2.238h-1.302v-2.238h-1.952v-1.493h1.952v-2.238h1.302v2.238h1.953zm0 17.906v1.492h-1.953v2.238h-1.302v-2.238h-1.952v-1.492h1.952v-2.238h1.302v2.238h1.953zm0 17.906v1.492h-1.953v2.238h-1.302v-2.238h-1.952v-1.492h1.952v-2.239h1.302v2.239h1.953zm0 17.905v1.492h-1.953v2.239h-1.302v-2.239h-1.952v-1.492h1.952v-2.238h1.302v2.238h1.953zm0 17.906v1.492h-1.953v2.238h-1.302v-2.238h-1.952v-1.492h1.952v-2.238h1.302v2.238h1.953zm0 17.905v1.492h-1.953v2.239h-1.302v-2.239h-1.952v-1.492h1.952v-2.238h1.302v2.238h1.953zm0 17.906v1.492h-1.953v2.238h-1.302v-2.238h-1.952v-1.492h1.952v-2.238h1.302v2.238h1.953zm0 17.906v1.492h-1.953v2.238h-1.302v-2.238h-1.952v-1.492h1.952v-2.239h1.302v2.239h1.953zm0 17.905v1.492h-1.953v2.238h-1.302v-2.238h-1.952v-1.492h1.952v-2.238h1.302v2.238h1.953zM255.138 2.815v1.492h-1.952v2.238h-1.302V4.307h-1.953V2.815h1.953V.577h1.302v2.238h1.952zm0 17.905v1.493h-1.952v2.238h-1.302v-2.238h-1.953V20.72h1.953v-2.239h1.302v2.239h1.952zm0 17.906v1.492h-1.952v2.238h-1.302v-2.238h-1.953v-1.492h1.953v-2.238h1.302v2.238h1.952zm0 17.906v1.492h-1.952v2.238h-1.302v-2.238h-1.953v-1.492h1.953v-2.239h1.302v2.239h1.952zm0 17.905v1.492h-1.952v2.239h-1.302v-2.239h-1.953v-1.492h1.953V72.2h1.302v2.238h1.952zm0 17.906v1.492h-1.952v2.238h-1.302v-2.238h-1.953v-1.492h1.953v-2.238h1.302v2.238h1.952zm0 17.905v1.493h-1.952v2.238h-1.302v-2.238h-1.953v-1.493h1.953v-2.238h1.302v2.238h1.952zm0 17.906v1.492h-1.952v2.238h-1.302v-2.238h-1.953v-1.492h1.953v-2.238h1.302v2.238h1.952zm0 17.906v1.492h-1.952v2.238h-1.302v-2.238h-1.953v-1.492h1.953v-2.239h1.302v2.239h1.952zm0 17.905v1.492h-1.952v2.239h-1.302v-2.239h-1.953v-1.492h1.953v-2.238h1.302v2.238h1.952zm0 17.906v1.492h-1.952v2.238h-1.302v-2.238h-1.953v-1.492h1.953v-2.238h1.302v2.238h1.952zm0 17.905v1.493h-1.952v2.238h-1.302v-2.238h-1.953v-1.493h1.953v-2.238h1.302v2.238h1.952zm0 17.906v1.492h-1.952v2.238h-1.302v-2.238h-1.953v-1.492h1.953v-2.238h1.302v2.238h1.952zm0 17.906v1.492h-1.952v2.238h-1.302v-2.238h-1.953v-1.492h1.953v-2.239h1.302v2.239h1.952zm0 17.905v1.492h-1.952v2.239h-1.302v-2.239h-1.953v-1.492h1.953v-2.238h1.302v2.238h1.952zm0 17.906v1.492h-1.952v2.238h-1.302v-2.238h-1.953v-1.492h1.953v-2.238h1.302v2.238h1.952zm0 17.905v1.492h-1.952v2.239h-1.302v-2.239h-1.953v-1.492h1.953v-2.238h1.302v2.238h1.952zm0 17.906v1.492h-1.952v2.238h-1.302v-2.238h-1.953v-1.492h1.953v-2.238h1.302v2.238h1.952zm0 17.906v1.492h-1.952v2.238h-1.302v-2.238h-1.953v-1.492h1.953v-2.239h1.302v2.239h1.952zm0 17.905v1.492h-1.952v2.238h-1.302v-2.238h-1.953v-1.492h1.953v-2.238h1.302v2.238h1.952zM239.518 2.815v1.492h-1.953v2.238h-1.302V4.307h-1.952V2.815h1.952V.577h1.302v2.238h1.953zm0 17.905v1.493h-1.953v2.238h-1.302v-2.238h-1.952V20.72h1.952v-2.239h1.302v2.239h1.953zm0 17.906v1.492h-1.953v2.238h-1.302v-2.238h-1.952v-1.492h1.952v-2.238h1.302v2.238h1.953zm0 17.906v1.492h-1.953v2.238h-1.302v-2.238h-1.952v-1.492h1.952v-2.239h1.302v2.239h1.953zm0 17.905v1.492h-1.953v2.239h-1.302v-2.239h-1.952v-1.492h1.952V72.2h1.302v2.238h1.953zm0 17.906v1.492h-1.953v2.238h-1.302v-2.238h-1.952v-1.492h1.952v-2.238h1.302v2.238h1.953zm0 17.905v1.493h-1.953v2.238h-1.302v-2.238h-1.952v-1.493h1.952v-2.238h1.302v2.238h1.953zm0 17.906v1.492h-1.953v2.238h-1.302v-2.238h-1.952v-1.492h1.952v-2.238h1.302v2.238h1.953zm0 17.906v1.492h-1.953v2.238h-1.302v-2.238h-1.952v-1.492h1.952v-2.239h1.302v2.239h1.953zm0 17.905v1.492h-1.953v2.239h-1.302v-2.239h-1.952v-1.492h1.952v-2.238h1.302v2.238h1.953zm0 17.906v1.492h-1.953v2.238h-1.302v-2.238h-1.952v-1.492h1.952v-2.238h1.302v2.238h1.953zm0 17.905v1.493h-1.953v2.238h-1.302v-2.238h-1.952v-1.493h1.952v-2.238h1.302v2.238h1.953zm0 17.906v1.492h-1.953v2.238h-1.302v-2.238h-1.952v-1.492h1.952v-2.238h1.302v2.238h1.953zm0 17.906v1.492h-1.953v2.238h-1.302v-2.238h-1.952v-1.492h1.952v-2.239h1.302v2.239h1.953zm0 17.905v1.492h-1.953v2.239h-1.302v-2.239h-1.952v-1.492h1.952v-2.238h1.302v2.238h1.953zm0 17.906v1.492h-1.953v2.238h-1.302v-2.238h-1.952v-1.492h1.952v-2.238h1.302v2.238h1.953zm0 17.905v1.492h-1.953v2.239h-1.302v-2.239h-1.952v-1.492h1.952v-2.238h1.302v2.238h1.953zm0 17.906v1.492h-1.953v2.238h-1.302v-2.238h-1.952v-1.492h1.952v-2.238h1.302v2.238h1.953zm0 17.906v1.492h-1.953v2.238h-1.302v-2.238h-1.952v-1.492h1.952v-2.239h1.302v2.239h1.953zm0 17.905v1.492h-1.953v2.238h-1.302v-2.238h-1.952v-1.492h1.952v-2.238h1.302v2.238h1.953zM223.897 2.815v1.492h-1.953v2.238h-1.302V4.307h-1.952V2.815h1.952V.577h1.302v2.238h1.953zm0 17.905v1.493h-1.953v2.238h-1.302v-2.238h-1.952V20.72h1.952v-2.239h1.302v2.239h1.953zm0 17.906v1.492h-1.953v2.238h-1.302v-2.238h-1.952v-1.492h1.952v-2.238h1.302v2.238h1.953zm0 17.906v1.492h-1.953v2.238h-1.302v-2.238h-1.952v-1.492h1.952v-2.239h1.302v2.239h1.953zm0 17.905v1.492h-1.953v2.239h-1.302v-2.239h-1.952v-1.492h1.952V72.2h1.302v2.238h1.953zm0 17.906v1.492h-1.953v2.238h-1.302v-2.238h-1.952v-1.492h1.952v-2.238h1.302v2.238h1.953zm0 17.905v1.493h-1.953v2.238h-1.302v-2.238h-1.952v-1.493h1.952v-2.238h1.302v2.238h1.953zm0 17.906v1.492h-1.953v2.238h-1.302v-2.238h-1.952v-1.492h1.952v-2.238h1.302v2.238h1.953zm0 17.906v1.492h-1.953v2.238h-1.302v-2.238h-1.952v-1.492h1.952v-2.239h1.302v2.239h1.953zm0 17.905v1.492h-1.953v2.239h-1.302v-2.239h-1.952v-1.492h1.952v-2.238h1.302v2.238h1.953zm0 17.906v1.492h-1.953v2.238h-1.302v-2.238h-1.952v-1.492h1.952v-2.238h1.302v2.238h1.953zm0 17.905v1.493h-1.953v2.238h-1.302v-2.238h-1.952v-1.493h1.952v-2.238h1.302v2.238h1.953zm0 17.906v1.492h-1.953v2.238h-1.302v-2.238h-1.952v-1.492h1.952v-2.238h1.302v2.238h1.953zm0 17.906v1.492h-1.953v2.238h-1.302v-2.238h-1.952v-1.492h1.952v-2.239h1.302v2.239h1.953zm0 17.905v1.492h-1.953v2.239h-1.302v-2.239h-1.952v-1.492h1.952v-2.238h1.302v2.238h1.953zm0 17.906v1.492h-1.953v2.238h-1.302v-2.238h-1.952v-1.492h1.952v-2.238h1.302v2.238h1.953zm0 17.905v1.492h-1.953v2.239h-1.302v-2.239h-1.952v-1.492h1.952v-2.238h1.302v2.238h1.953zm0 17.906v1.492h-1.953v2.238h-1.302v-2.238h-1.952v-1.492h1.952v-2.238h1.302v2.238h1.953zm0 17.906v1.492h-1.953v2.238h-1.302v-2.238h-1.952v-1.492h1.952v-2.239h1.302v2.239h1.953zm0 17.905v1.492h-1.953v2.238h-1.302v-2.238h-1.952v-1.492h1.952v-2.238h1.302v2.238h1.953zM208.276 2.815v1.492h-1.952v2.238h-1.302V4.307h-1.953V2.815h1.953V.577h1.302v2.238h1.952zm0 17.905v1.493h-1.952v2.238h-1.302v-2.238h-1.953V20.72h1.953v-2.239h1.302v2.239h1.952zm0 17.906v1.492h-1.952v2.238h-1.302v-2.238h-1.953v-1.492h1.953v-2.238h1.302v2.238h1.952zm0 17.906v1.492h-1.952v2.238h-1.302v-2.238h-1.953v-1.492h1.953v-2.239h1.302v2.239h1.952zm0 17.905v1.492h-1.952v2.239h-1.302v-2.239h-1.953v-1.492h1.953V72.2h1.302v2.238h1.952zm0 17.906v1.492h-1.952v2.238h-1.302v-2.238h-1.953v-1.492h1.953v-2.238h1.302v2.238h1.952zm0 17.905v1.493h-1.952v2.238h-1.302v-2.238h-1.953v-1.493h1.953v-2.238h1.302v2.238h1.952zm0 17.906v1.492h-1.952v2.238h-1.302v-2.238h-1.953v-1.492h1.953v-2.238h1.302v2.238h1.952zm0 17.906v1.492h-1.952v2.238h-1.302v-2.238h-1.953v-1.492h1.953v-2.239h1.302v2.239h1.952zm0 17.905v1.492h-1.952v2.239h-1.302v-2.239h-1.953v-1.492h1.953v-2.238h1.302v2.238h1.952zm0 17.906v1.492h-1.952v2.238h-1.302v-2.238h-1.953v-1.492h1.953v-2.238h1.302v2.238h1.952zm0 17.905v1.493h-1.952v2.238h-1.302v-2.238h-1.953v-1.493h1.953v-2.238h1.302v2.238h1.952zm0 17.906v1.492h-1.952v2.238h-1.302v-2.238h-1.953v-1.492h1.953v-2.238h1.302v2.238h1.952zm0 17.906v1.492h-1.952v2.238h-1.302v-2.238h-1.953v-1.492h1.953v-2.239h1.302v2.239h1.952zm0 17.905v1.492h-1.952v2.239h-1.302v-2.239h-1.953v-1.492h1.953v-2.238h1.302v2.238h1.952zm0 17.906v1.492h-1.952v2.238h-1.302v-2.238h-1.953v-1.492h1.953v-2.238h1.302v2.238h1.952zm0 17.905v1.492h-1.952v2.239h-1.302v-2.239h-1.953v-1.492h1.953v-2.238h1.302v2.238h1.952zm0 17.906v1.492h-1.952v2.238h-1.302v-2.238h-1.953v-1.492h1.953v-2.238h1.302v2.238h1.952zm0 17.906v1.492h-1.952v2.238h-1.302v-2.238h-1.953v-1.492h1.953v-2.239h1.302v2.239h1.952zm0 17.905v1.492h-1.952v2.238h-1.302v-2.238h-1.953v-1.492h1.953v-2.238h1.302v2.238h1.952zM192.655 2.815v1.492h-1.952v2.238h-1.302V4.307h-1.953V2.815h1.953V.577h1.302v2.238h1.952zm0 17.905v1.493h-1.952v2.238h-1.302v-2.238h-1.953V20.72h1.953v-2.239h1.302v2.239h1.952zm0 17.906v1.492h-1.952v2.238h-1.302v-2.238h-1.953v-1.492h1.953v-2.238h1.302v2.238h1.952zm0 17.906v1.492h-1.952v2.238h-1.302v-2.238h-1.953v-1.492h1.953v-2.239h1.302v2.239h1.952zm0 17.905v1.492h-1.952v2.239h-1.302v-2.239h-1.953v-1.492h1.953V72.2h1.302v2.238h1.952zm0 17.906v1.492h-1.952v2.238h-1.302v-2.238h-1.953v-1.492h1.953v-2.238h1.302v2.238h1.952zm0 17.905v1.493h-1.952v2.238h-1.302v-2.238h-1.953v-1.493h1.953v-2.238h1.302v2.238h1.952zm0 17.906v1.492h-1.952v2.238h-1.302v-2.238h-1.953v-1.492h1.953v-2.238h1.302v2.238h1.952zm0 17.906v1.492h-1.952v2.238h-1.302v-2.238h-1.953v-1.492h1.953v-2.239h1.302v2.239h1.952zm0 17.905v1.492h-1.952v2.239h-1.302v-2.239h-1.953v-1.492h1.953v-2.238h1.302v2.238h1.952zm0 17.906v1.492h-1.952v2.238h-1.302v-2.238h-1.953v-1.492h1.953v-2.238h1.302v2.238h1.952zm0 17.905v1.493h-1.952v2.238h-1.302v-2.238h-1.953v-1.493h1.953v-2.238h1.302v2.238h1.952zm0 17.906v1.492h-1.952v2.238h-1.302v-2.238h-1.953v-1.492h1.953v-2.238h1.302v2.238h1.952zm0 17.906v1.492h-1.952v2.238h-1.302v-2.238h-1.953v-1.492h1.953v-2.239h1.302v2.239h1.952zm0 17.905v1.492h-1.952v2.239h-1.302v-2.239h-1.953v-1.492h1.953v-2.238h1.302v2.238h1.952zm0 17.906v1.492h-1.952v2.238h-1.302v-2.238h-1.953v-1.492h1.953v-2.238h1.302v2.238h1.952zm0 17.905v1.492h-1.952v2.239h-1.302v-2.239h-1.953v-1.492h1.953v-2.238h1.302v2.238h1.952zm0 17.906v1.492h-1.952v2.238h-1.302v-2.238h-1.953v-1.492h1.953v-2.238h1.302v2.238h1.952zm0 17.906v1.492h-1.952v2.238h-1.302v-2.238h-1.953v-1.492h1.953v-2.239h1.302v2.239h1.952zm0 17.905v1.492h-1.952v2.238h-1.302v-2.238h-1.953v-1.492h1.953v-2.238h1.302v2.238h1.952zM177.035 2.815v1.492h-1.953v2.238h-1.302V4.307h-1.952V2.815h1.952V.577h1.302v2.238h1.953zm0 17.905v1.493h-1.953v2.238h-1.302v-2.238h-1.952V20.72h1.952v-2.239h1.302v2.239h1.953zm0 17.906v1.492h-1.953v2.238h-1.302v-2.238h-1.952v-1.492h1.952v-2.238h1.302v2.238h1.953zm0 17.906v1.492h-1.953v2.238h-1.302v-2.238h-1.952v-1.492h1.952v-2.239h1.302v2.239h1.953zm0 17.905v1.492h-1.953v2.239h-1.302v-2.239h-1.952v-1.492h1.952V72.2h1.302v2.238h1.953zm0 17.906v1.492h-1.953v2.238h-1.302v-2.238h-1.952v-1.492h1.952v-2.238h1.302v2.238h1.953zm0 17.905v1.493h-1.953v2.238h-1.302v-2.238h-1.952v-1.493h1.952v-2.238h1.302v2.238h1.953zm0 17.906v1.492h-1.953v2.238h-1.302v-2.238h-1.952v-1.492h1.952v-2.238h1.302v2.238h1.953zm0 17.906v1.492h-1.953v2.238h-1.302v-2.238h-1.952v-1.492h1.952v-2.239h1.302v2.239h1.953zm0 17.905v1.492h-1.953v2.239h-1.302v-2.239h-1.952v-1.492h1.952v-2.238h1.302v2.238h1.953zm0 17.906v1.492h-1.953v2.238h-1.302v-2.238h-1.952v-1.492h1.952v-2.238h1.302v2.238h1.953zm0 17.905v1.493h-1.953v2.238h-1.302v-2.238h-1.952v-1.493h1.952v-2.238h1.302v2.238h1.953zm0 17.906v1.492h-1.953v2.238h-1.302v-2.238h-1.952v-1.492h1.952v-2.238h1.302v2.238h1.953zm0 17.906v1.492h-1.953v2.238h-1.302v-2.238h-1.952v-1.492h1.952v-2.239h1.302v2.239h1.953zm0 17.905v1.492h-1.953v2.239h-1.302v-2.239h-1.952v-1.492h1.952v-2.238h1.302v2.238h1.953zm0 17.906v1.492h-1.953v2.238h-1.302v-2.238h-1.952v-1.492h1.952v-2.238h1.302v2.238h1.953zm0 17.905v1.492h-1.953v2.239h-1.302v-2.239h-1.952v-1.492h1.952v-2.238h1.302v2.238h1.953zm0 17.906v1.492h-1.953v2.238h-1.302v-2.238h-1.952v-1.492h1.952v-2.238h1.302v2.238h1.953zm0 17.906v1.492h-1.953v2.238h-1.302v-2.238h-1.952v-1.492h1.952v-2.239h1.302v2.239h1.953zm0 17.905v1.492h-1.953v2.238h-1.302v-2.238h-1.952v-1.492h1.952v-2.238h1.302v2.238h1.953zM161.414 2.815v1.492h-1.953v2.238h-1.301V4.307h-1.953V2.815h1.953V.577h1.301v2.238h1.953zm0 17.905v1.493h-1.953v2.238h-1.301v-2.238h-1.953V20.72h1.953v-2.239h1.301v2.239h1.953zm0 17.906v1.492h-1.953v2.238h-1.301v-2.238h-1.953v-1.492h1.953v-2.238h1.301v2.238h1.953zm0 17.906v1.492h-1.953v2.238h-1.301v-2.238h-1.953v-1.492h1.953v-2.239h1.301v2.239h1.953zm0 17.905v1.492h-1.953v2.239h-1.301v-2.239h-1.953v-1.492h1.953V72.2h1.301v2.238h1.953zm0 17.906v1.492h-1.953v2.238h-1.301v-2.238h-1.953v-1.492h1.953v-2.238h1.301v2.238h1.953zm0 17.905v1.493h-1.953v2.238h-1.301v-2.238h-1.953v-1.493h1.953v-2.238h1.301v2.238h1.953zm0 17.906v1.492h-1.953v2.238h-1.301v-2.238h-1.953v-1.492h1.953v-2.238h1.301v2.238h1.953zm0 17.906v1.492h-1.953v2.238h-1.301v-2.238h-1.953v-1.492h1.953v-2.239h1.301v2.239h1.953zm0 17.905v1.492h-1.953v2.239h-1.301v-2.239h-1.953v-1.492h1.953v-2.238h1.301v2.238h1.953zm0 17.906v1.492h-1.953v2.238h-1.301v-2.238h-1.953v-1.492h1.953v-2.238h1.301v2.238h1.953zm0 17.905v1.493h-1.953v2.238h-1.301v-2.238h-1.953v-1.493h1.953v-2.238h1.301v2.238h1.953zm0 17.906v1.492h-1.953v2.238h-1.301v-2.238h-1.953v-1.492h1.953v-2.238h1.301v2.238h1.953zm0 17.906v1.492h-1.953v2.238h-1.301v-2.238h-1.953v-1.492h1.953v-2.239h1.301v2.239h1.953zm0 17.905v1.492h-1.953v2.239h-1.301v-2.239h-1.953v-1.492h1.953v-2.238h1.301v2.238h1.953zm0 17.906v1.492h-1.953v2.238h-1.301v-2.238h-1.953v-1.492h1.953v-2.238h1.301v2.238h1.953zm0 17.905v1.492h-1.953v2.239h-1.301v-2.239h-1.953v-1.492h1.953v-2.238h1.301v2.238h1.953zm0 17.906v1.492h-1.953v2.238h-1.301v-2.238h-1.953v-1.492h1.953v-2.238h1.301v2.238h1.953zm0 17.906v1.492h-1.953v2.238h-1.301v-2.238h-1.953v-1.492h1.953v-2.239h1.301v2.239h1.953zm0 17.905v1.492h-1.953v2.238h-1.301v-2.238h-1.953v-1.492h1.953v-2.238h1.301v2.238h1.953zM145.793 2.815v1.492h-1.952v2.238h-1.302V4.307h-1.953V2.815h1.953V.577h1.302v2.238h1.952zm0 17.905v1.493h-1.952v2.238h-1.302v-2.238h-1.953V20.72h1.953v-2.239h1.302v2.239h1.952zm0 17.906v1.492h-1.952v2.238h-1.302v-2.238h-1.953v-1.492h1.953v-2.238h1.302v2.238h1.952zm0 17.906v1.492h-1.952v2.238h-1.302v-2.238h-1.953v-1.492h1.953v-2.239h1.302v2.239h1.952zm0 17.905v1.492h-1.952v2.239h-1.302v-2.239h-1.953v-1.492h1.953V72.2h1.302v2.238h1.952zm0 17.906v1.492h-1.952v2.238h-1.302v-2.238h-1.953v-1.492h1.953v-2.238h1.302v2.238h1.952zm0 17.905v1.493h-1.952v2.238h-1.302v-2.238h-1.953v-1.493h1.953v-2.238h1.302v2.238h1.952zm0 17.906v1.492h-1.952v2.238h-1.302v-2.238h-1.953v-1.492h1.953v-2.238h1.302v2.238h1.952zm0 17.906v1.492h-1.952v2.238h-1.302v-2.238h-1.953v-1.492h1.953v-2.239h1.302v2.239h1.952zm0 17.905v1.492h-1.952v2.239h-1.302v-2.239h-1.953v-1.492h1.953v-2.238h1.302v2.238h1.952zm0 17.906v1.492h-1.952v2.238h-1.302v-2.238h-1.953v-1.492h1.953v-2.238h1.302v2.238h1.952zm0 17.905v1.493h-1.952v2.238h-1.302v-2.238h-1.953v-1.493h1.953v-2.238h1.302v2.238h1.952zm0 17.906v1.492h-1.952v2.238h-1.302v-2.238h-1.953v-1.492h1.953v-2.238h1.302v2.238h1.952zm0 17.906v1.492h-1.952v2.238h-1.302v-2.238h-1.953v-1.492h1.953v-2.239h1.302v2.239h1.952zm0 17.905v1.492h-1.952v2.239h-1.302v-2.239h-1.953v-1.492h1.953v-2.238h1.302v2.238h1.952zm0 17.906v1.492h-1.952v2.238h-1.302v-2.238h-1.953v-1.492h1.953v-2.238h1.302v2.238h1.952zm0 17.905v1.492h-1.952v2.239h-1.302v-2.239h-1.953v-1.492h1.953v-2.238h1.302v2.238h1.952zm0 17.906v1.492h-1.952v2.238h-1.302v-2.238h-1.953v-1.492h1.953v-2.238h1.302v2.238h1.952zm0 17.906v1.492h-1.952v2.238h-1.302v-2.238h-1.953v-1.492h1.953v-2.239h1.302v2.239h1.952zm0 17.905v1.492h-1.952v2.238h-1.302v-2.238h-1.953v-1.492h1.953v-2.238h1.302v2.238h1.952zM130.173 2.815v1.492h-1.953v2.238h-1.302V4.307h-1.952V2.815h1.952V.577h1.302v2.238h1.953zm0 17.905v1.493h-1.953v2.238h-1.302v-2.238h-1.952V20.72h1.952v-2.239h1.302v2.239h1.953zm0 17.906v1.492h-1.953v2.238h-1.302v-2.238h-1.952v-1.492h1.952v-2.238h1.302v2.238h1.953zm0 17.906v1.492h-1.953v2.238h-1.302v-2.238h-1.952v-1.492h1.952v-2.239h1.302v2.239h1.953zm0 17.905v1.492h-1.953v2.239h-1.302v-2.239h-1.952v-1.492h1.952V72.2h1.302v2.238h1.953zm0 17.906v1.492h-1.953v2.238h-1.302v-2.238h-1.952v-1.492h1.952v-2.238h1.302v2.238h1.953zm0 17.905v1.493h-1.953v2.238h-1.302v-2.238h-1.952v-1.493h1.952v-2.238h1.302v2.238h1.953zm0 17.906v1.492h-1.953v2.238h-1.302v-2.238h-1.952v-1.492h1.952v-2.238h1.302v2.238h1.953zm0 17.906v1.492h-1.953v2.238h-1.302v-2.238h-1.952v-1.492h1.952v-2.239h1.302v2.239h1.953zm0 17.905v1.492h-1.953v2.239h-1.302v-2.239h-1.952v-1.492h1.952v-2.238h1.302v2.238h1.953zm0 17.906v1.492h-1.953v2.238h-1.302v-2.238h-1.952v-1.492h1.952v-2.238h1.302v2.238h1.953zm0 17.905v1.493h-1.953v2.238h-1.302v-2.238h-1.952v-1.493h1.952v-2.238h1.302v2.238h1.953zm0 17.906v1.492h-1.953v2.238h-1.302v-2.238h-1.952v-1.492h1.952v-2.238h1.302v2.238h1.953zm0 17.906v1.492h-1.953v2.238h-1.302v-2.238h-1.952v-1.492h1.952v-2.239h1.302v2.239h1.953zm0 17.905v1.492h-1.953v2.239h-1.302v-2.239h-1.952v-1.492h1.952v-2.238h1.302v2.238h1.953zm0 17.906v1.492h-1.953v2.238h-1.302v-2.238h-1.952v-1.492h1.952v-2.238h1.302v2.238h1.953zm0 17.905v1.492h-1.953v2.239h-1.302v-2.239h-1.952v-1.492h1.952v-2.238h1.302v2.238h1.953zm0 17.906v1.492h-1.953v2.238h-1.302v-2.238h-1.952v-1.492h1.952v-2.238h1.302v2.238h1.953zm0 17.906v1.492h-1.953v2.238h-1.302v-2.238h-1.952v-1.492h1.952v-2.239h1.302v2.239h1.953zm0 17.905v1.492h-1.953v2.238h-1.302v-2.238h-1.952v-1.492h1.952v-2.238h1.302v2.238h1.953zM114.552 2.815v1.492h-1.953v2.238h-1.301V4.307h-1.953V2.815h1.953V.577h1.301v2.238h1.953zm0 17.905v1.493h-1.953v2.238h-1.301v-2.238h-1.953V20.72h1.953v-2.239h1.301v2.239h1.953zm0 17.906v1.492h-1.953v2.238h-1.301v-2.238h-1.953v-1.492h1.953v-2.238h1.301v2.238h1.953zm0 17.906v1.492h-1.953v2.238h-1.301v-2.238h-1.953v-1.492h1.953v-2.239h1.301v2.239h1.953zm0 17.905v1.492h-1.953v2.239h-1.301v-2.239h-1.953v-1.492h1.953V72.2h1.301v2.238h1.953zm0 17.906v1.492h-1.953v2.238h-1.301v-2.238h-1.953v-1.492h1.953v-2.238h1.301v2.238h1.953zm0 17.905v1.493h-1.953v2.238h-1.301v-2.238h-1.953v-1.493h1.953v-2.238h1.301v2.238h1.953zm0 17.906v1.492h-1.953v2.238h-1.301v-2.238h-1.953v-1.492h1.953v-2.238h1.301v2.238h1.953zm0 17.906v1.492h-1.953v2.238h-1.301v-2.238h-1.953v-1.492h1.953v-2.239h1.301v2.239h1.953zm0 17.905v1.492h-1.953v2.239h-1.301v-2.239h-1.953v-1.492h1.953v-2.238h1.301v2.238h1.953zm0 17.906v1.492h-1.953v2.238h-1.301v-2.238h-1.953v-1.492h1.953v-2.238h1.301v2.238h1.953zm0 17.905v1.493h-1.953v2.238h-1.301v-2.238h-1.953v-1.493h1.953v-2.238h1.301v2.238h1.953zm0 17.906v1.492h-1.953v2.238h-1.301v-2.238h-1.953v-1.492h1.953v-2.238h1.301v2.238h1.953zm0 17.906v1.492h-1.953v2.238h-1.301v-2.238h-1.953v-1.492h1.953v-2.239h1.301v2.239h1.953zm0 17.905v1.492h-1.953v2.239h-1.301v-2.239h-1.953v-1.492h1.953v-2.238h1.301v2.238h1.953zm0 17.906v1.492h-1.953v2.238h-1.301v-2.238h-1.953v-1.492h1.953v-2.238h1.301v2.238h1.953zm0 17.905v1.492h-1.953v2.239h-1.301v-2.239h-1.953v-1.492h1.953v-2.238h1.301v2.238h1.953zm0 17.906v1.492h-1.953v2.238h-1.301v-2.238h-1.953v-1.492h1.953v-2.238h1.301v2.238h1.953zm0 17.906v1.492h-1.953v2.238h-1.301v-2.238h-1.953v-1.492h1.953v-2.239h1.301v2.239h1.953zm0 17.905v1.492h-1.953v2.238h-1.301v-2.238h-1.953v-1.492h1.953v-2.238h1.301v2.238h1.953zM98.93 2.815v1.492h-1.952v2.238h-1.301V4.307h-1.953V2.815h1.953V.577h1.301v2.238h1.953zm0 17.905v1.493h-1.952v2.238h-1.301v-2.238h-1.953V20.72h1.953v-2.239h1.301v2.239h1.953zm0 17.906v1.492h-1.952v2.238h-1.301v-2.238h-1.953v-1.492h1.953v-2.238h1.301v2.238h1.953zm0 17.906v1.492h-1.952v2.238h-1.301v-2.238h-1.953v-1.492h1.953v-2.239h1.301v2.239h1.953zm0 17.905v1.492h-1.952v2.239h-1.301v-2.239h-1.953v-1.492h1.953V72.2h1.301v2.238h1.953zm0 17.906v1.492h-1.952v2.238h-1.301v-2.238h-1.953v-1.492h1.953v-2.238h1.301v2.238h1.953zm0 17.905v1.493h-1.952v2.238h-1.301v-2.238h-1.953v-1.493h1.953v-2.238h1.301v2.238h1.953zm0 17.906v1.492h-1.952v2.238h-1.301v-2.238h-1.953v-1.492h1.953v-2.238h1.301v2.238h1.953zm0 17.906v1.492h-1.952v2.238h-1.301v-2.238h-1.953v-1.492h1.953v-2.239h1.301v2.239h1.953zm0 17.905v1.492h-1.952v2.239h-1.301v-2.239h-1.953v-1.492h1.953v-2.238h1.301v2.238h1.953zm0 17.906v1.492h-1.952v2.238h-1.301v-2.238h-1.953v-1.492h1.953v-2.238h1.301v2.238h1.953zm0 17.905v1.493h-1.952v2.238h-1.301v-2.238h-1.953v-1.493h1.953v-2.238h1.301v2.238h1.953zm0 17.906v1.492h-1.952v2.238h-1.301v-2.238h-1.953v-1.492h1.953v-2.238h1.301v2.238h1.953zm0 17.906v1.492h-1.952v2.238h-1.301v-2.238h-1.953v-1.492h1.953v-2.239h1.301v2.239h1.953zm0 17.905v1.492h-1.952v2.239h-1.301v-2.239h-1.953v-1.492h1.953v-2.238h1.301v2.238h1.953zm0 17.906v1.492h-1.952v2.238h-1.301v-2.238h-1.953v-1.492h1.953v-2.238h1.301v2.238h1.953zm0 17.905v1.492h-1.952v2.239h-1.301v-2.239h-1.953v-1.492h1.953v-2.238h1.301v2.238h1.953zm0 17.906v1.492h-1.952v2.238h-1.301v-2.238h-1.953v-1.492h1.953v-2.238h1.301v2.238h1.953zm0 17.906v1.492h-1.952v2.238h-1.301v-2.238h-1.953v-1.492h1.953v-2.239h1.301v2.239h1.953zm0 17.905v1.492h-1.952v2.238h-1.301v-2.238h-1.953v-1.492h1.953v-2.238h1.301v2.238h1.953zM83.31 2.815v1.492h-1.952v2.238h-1.302V4.307h-1.953V2.815h1.953V.577h1.302v2.238h1.952zm0 17.905v1.493h-1.952v2.238h-1.302v-2.238h-1.953V20.72h1.953v-2.239h1.302v2.239h1.952zm0 17.906v1.492h-1.952v2.238h-1.302v-2.238h-1.953v-1.492h1.953v-2.238h1.302v2.238h1.952zm0 17.906v1.492h-1.952v2.238h-1.302v-2.238h-1.953v-1.492h1.953v-2.239h1.302v2.239h1.952zm0 17.905v1.492h-1.952v2.239h-1.302v-2.239h-1.953v-1.492h1.953V72.2h1.302v2.238h1.952zm0 17.906v1.492h-1.952v2.238h-1.302v-2.238h-1.953v-1.492h1.953v-2.238h1.302v2.238h1.952zm0 17.905v1.493h-1.952v2.238h-1.302v-2.238h-1.953v-1.493h1.953v-2.238h1.302v2.238h1.952zm0 17.906v1.492h-1.952v2.238h-1.302v-2.238h-1.953v-1.492h1.953v-2.238h1.302v2.238h1.952zm0 17.906v1.492h-1.952v2.238h-1.302v-2.238h-1.953v-1.492h1.953v-2.239h1.302v2.239h1.952zm0 17.905v1.492h-1.952v2.239h-1.302v-2.239h-1.953v-1.492h1.953v-2.238h1.302v2.238h1.952zm0 17.906v1.492h-1.952v2.238h-1.302v-2.238h-1.953v-1.492h1.953v-2.238h1.302v2.238h1.952zm0 17.905v1.493h-1.952v2.238h-1.302v-2.238h-1.953v-1.493h1.953v-2.238h1.302v2.238h1.952zm0 17.906v1.492h-1.952v2.238h-1.302v-2.238h-1.953v-1.492h1.953v-2.238h1.302v2.238h1.952zm0 17.906v1.492h-1.952v2.238h-1.302v-2.238h-1.953v-1.492h1.953v-2.239h1.302v2.239h1.952zm0 17.905v1.492h-1.952v2.239h-1.302v-2.239h-1.953v-1.492h1.953v-2.238h1.302v2.238h1.952zm0 17.906v1.492h-1.952v2.238h-1.302v-2.238h-1.953v-1.492h1.953v-2.238h1.302v2.238h1.952zm0 17.905v1.492h-1.952v2.239h-1.302v-2.239h-1.953v-1.492h1.953v-2.238h1.302v2.238h1.952zm0 17.906v1.492h-1.952v2.238h-1.302v-2.238h-1.953v-1.492h1.953v-2.238h1.302v2.238h1.952zm0 17.906v1.492h-1.952v2.238h-1.302v-2.238h-1.953v-1.492h1.953v-2.239h1.302v2.239h1.952zm0 17.905v1.492h-1.952v2.238h-1.302v-2.238h-1.953v-1.492h1.953v-2.238h1.302v2.238h1.952zM67.69 2.815v1.492h-1.953v2.238h-1.302V4.307h-1.952V2.815h1.952V.577h1.302v2.238h1.953zm0 17.905v1.493h-1.953v2.238h-1.302v-2.238h-1.952V20.72h1.952v-2.239h1.302v2.239h1.953zm0 17.906v1.492h-1.953v2.238h-1.302v-2.238h-1.952v-1.492h1.952v-2.238h1.302v2.238h1.953zm0 17.906v1.492h-1.953v2.238h-1.302v-2.238h-1.952v-1.492h1.952v-2.239h1.302v2.239h1.953zm0 17.905v1.492h-1.953v2.239h-1.302v-2.239h-1.952v-1.492h1.952V72.2h1.302v2.238h1.953zm0 17.906v1.492h-1.953v2.238h-1.302v-2.238h-1.952v-1.492h1.952v-2.238h1.302v2.238h1.953zm0 17.905v1.493h-1.953v2.238h-1.302v-2.238h-1.952v-1.493h1.952v-2.238h1.302v2.238h1.953zm0 17.906v1.492h-1.953v2.238h-1.302v-2.238h-1.952v-1.492h1.952v-2.238h1.302v2.238h1.953zm0 17.906v1.492h-1.953v2.238h-1.302v-2.238h-1.952v-1.492h1.952v-2.239h1.302v2.239h1.953zm0 17.905v1.492h-1.953v2.239h-1.302v-2.239h-1.952v-1.492h1.952v-2.238h1.302v2.238h1.953zm0 17.906v1.492h-1.953v2.238h-1.302v-2.238h-1.952v-1.492h1.952v-2.238h1.302v2.238h1.953zm0 17.905v1.493h-1.953v2.238h-1.302v-2.238h-1.952v-1.493h1.952v-2.238h1.302v2.238h1.953zm0 17.906v1.492h-1.953v2.238h-1.302v-2.238h-1.952v-1.492h1.952v-2.238h1.302v2.238h1.953zm0 17.906v1.492h-1.953v2.238h-1.302v-2.238h-1.952v-1.492h1.952v-2.239h1.302v2.239h1.953zm0 17.905v1.492h-1.953v2.239h-1.302v-2.239h-1.952v-1.492h1.952v-2.238h1.302v2.238h1.953zm0 17.906v1.492h-1.953v2.238h-1.302v-2.238h-1.952v-1.492h1.952v-2.238h1.302v2.238h1.953zm0 17.905v1.492h-1.953v2.239h-1.302v-2.239h-1.952v-1.492h1.952v-2.238h1.302v2.238h1.953zm0 17.906v1.492h-1.953v2.238h-1.302v-2.238h-1.952v-1.492h1.952v-2.238h1.302v2.238h1.953zm0 17.906v1.492h-1.953v2.238h-1.302v-2.238h-1.952v-1.492h1.952v-2.239h1.302v2.239h1.953zm0 17.905v1.492h-1.953v2.238h-1.302v-2.238h-1.952v-1.492h1.952v-2.238h1.302v2.238h1.953zM52.069 2.815v1.492h-1.953v2.238h-1.301V4.307h-1.953V2.815h1.953V.577h1.301v2.238h1.953zm0 17.905v1.493h-1.953v2.238h-1.301v-2.238h-1.953V20.72h1.953v-2.239h1.301v2.239h1.953zm0 17.906v1.492h-1.953v2.238h-1.301v-2.238h-1.953v-1.492h1.953v-2.238h1.301v2.238h1.953zm0 17.906v1.492h-1.953v2.238h-1.301v-2.238h-1.953v-1.492h1.953v-2.239h1.301v2.239h1.953zm0 17.905v1.492h-1.953v2.239h-1.301v-2.239h-1.953v-1.492h1.953V72.2h1.301v2.238h1.953zm0 17.906v1.492h-1.953v2.238h-1.301v-2.238h-1.953v-1.492h1.953v-2.238h1.301v2.238h1.953zm0 17.905v1.493h-1.953v2.238h-1.301v-2.238h-1.953v-1.493h1.953v-2.238h1.301v2.238h1.953zm0 17.906v1.492h-1.953v2.238h-1.301v-2.238h-1.953v-1.492h1.953v-2.238h1.301v2.238h1.953zm0 17.906v1.492h-1.953v2.238h-1.301v-2.238h-1.953v-1.492h1.953v-2.239h1.301v2.239h1.953zm0 17.905v1.492h-1.953v2.239h-1.301v-2.239h-1.953v-1.492h1.953v-2.238h1.301v2.238h1.953zm0 17.906v1.492h-1.953v2.238h-1.301v-2.238h-1.953v-1.492h1.953v-2.238h1.301v2.238h1.953zm0 17.905v1.493h-1.953v2.238h-1.301v-2.238h-1.953v-1.493h1.953v-2.238h1.301v2.238h1.953zm0 17.906v1.492h-1.953v2.238h-1.301v-2.238h-1.953v-1.492h1.953v-2.238h1.301v2.238h1.953zm0 17.906v1.492h-1.953v2.238h-1.301v-2.238h-1.953v-1.492h1.953v-2.239h1.301v2.239h1.953zm0 17.905v1.492h-1.953v2.239h-1.301v-2.239h-1.953v-1.492h1.953v-2.238h1.301v2.238h1.953zm0 17.906v1.492h-1.953v2.238h-1.301v-2.238h-1.953v-1.492h1.953v-2.238h1.301v2.238h1.953zm0 17.905v1.492h-1.953v2.239h-1.301v-2.239h-1.953v-1.492h1.953v-2.238h1.301v2.238h1.953zm0 17.906v1.492h-1.953v2.238h-1.301v-2.238h-1.953v-1.492h1.953v-2.238h1.301v2.238h1.953zm0 17.906v1.492h-1.953v2.238h-1.301v-2.238h-1.953v-1.492h1.953v-2.239h1.301v2.239h1.953zm0 17.905v1.492h-1.953v2.238h-1.301v-2.238h-1.953v-1.492h1.953v-2.238h1.301v2.238h1.953zM36.448 2.815v1.492h-1.952v2.238h-1.302V4.307h-1.953V2.815h1.953V.577h1.302v2.238h1.952zm0 17.905v1.493h-1.952v2.238h-1.302v-2.238h-1.953V20.72h1.953v-2.239h1.302v2.239h1.952zm0 17.906v1.492h-1.952v2.238h-1.302v-2.238h-1.953v-1.492h1.953v-2.238h1.302v2.238h1.952zm0 17.906v1.492h-1.952v2.238h-1.302v-2.238h-1.953v-1.492h1.953v-2.239h1.302v2.239h1.952zm0 17.905v1.492h-1.952v2.239h-1.302v-2.239h-1.953v-1.492h1.953V72.2h1.302v2.238h1.952zm0 17.906v1.492h-1.952v2.238h-1.302v-2.238h-1.953v-1.492h1.953v-2.238h1.302v2.238h1.952zm0 17.905v1.493h-1.952v2.238h-1.302v-2.238h-1.953v-1.493h1.953v-2.238h1.302v2.238h1.952zm0 17.906v1.492h-1.952v2.238h-1.302v-2.238h-1.953v-1.492h1.953v-2.238h1.302v2.238h1.952zm0 17.906v1.492h-1.952v2.238h-1.302v-2.238h-1.953v-1.492h1.953v-2.239h1.302v2.239h1.952zm0 17.905v1.492h-1.952v2.239h-1.302v-2.239h-1.953v-1.492h1.953v-2.238h1.302v2.238h1.952zm0 17.906v1.492h-1.952v2.238h-1.302v-2.238h-1.953v-1.492h1.953v-2.238h1.302v2.238h1.952zm0 17.905v1.493h-1.952v2.238h-1.302v-2.238h-1.953v-1.493h1.953v-2.238h1.302v2.238h1.952zm0 17.906v1.492h-1.952v2.238h-1.302v-2.238h-1.953v-1.492h1.953v-2.238h1.302v2.238h1.952zm0 17.906v1.492h-1.952v2.238h-1.302v-2.238h-1.953v-1.492h1.953v-2.239h1.302v2.239h1.952zm0 17.905v1.492h-1.952v2.239h-1.302v-2.239h-1.953v-1.492h1.953v-2.238h1.302v2.238h1.952zm0 17.906v1.492h-1.952v2.238h-1.302v-2.238h-1.953v-1.492h1.953v-2.238h1.302v2.238h1.952zm0 17.905v1.492h-1.952v2.239h-1.302v-2.239h-1.953v-1.492h1.953v-2.238h1.302v2.238h1.952zm0 17.906v1.492h-1.952v2.238h-1.302v-2.238h-1.953v-1.492h1.953v-2.238h1.302v2.238h1.952zm0 17.906v1.492h-1.952v2.238h-1.302v-2.238h-1.953v-1.492h1.953v-2.239h1.302v2.239h1.952zm0 17.905v1.492h-1.952v2.238h-1.302v-2.238h-1.953v-1.492h1.953v-2.238h1.302v2.238h1.952zM20.828 2.815v1.492h-1.953v2.238h-1.302V4.307h-1.952V2.815h1.952V.577h1.302v2.238h1.953zm0 17.905v1.493h-1.953v2.238h-1.302v-2.238h-1.952V20.72h1.952v-2.239h1.302v2.239h1.953zm0 17.906v1.492h-1.953v2.238h-1.302v-2.238h-1.952v-1.492h1.952v-2.238h1.302v2.238h1.953zm0 17.906v1.492h-1.953v2.238h-1.302v-2.238h-1.952v-1.492h1.952v-2.239h1.302v2.239h1.953zm0 17.905v1.492h-1.953v2.239h-1.302v-2.239h-1.952v-1.492h1.952V72.2h1.302v2.238h1.953zm0 17.906v1.492h-1.953v2.238h-1.302v-2.238h-1.952v-1.492h1.952v-2.238h1.302v2.238h1.953zm0 17.905v1.493h-1.953v2.238h-1.302v-2.238h-1.952v-1.493h1.952v-2.238h1.302v2.238h1.953zm0 17.906v1.492h-1.953v2.238h-1.302v-2.238h-1.952v-1.492h1.952v-2.238h1.302v2.238h1.953zm0 17.906v1.492h-1.953v2.238h-1.302v-2.238h-1.952v-1.492h1.952v-2.239h1.302v2.239h1.953zm0 17.905v1.492h-1.953v2.239h-1.302v-2.239h-1.952v-1.492h1.952v-2.238h1.302v2.238h1.953zm0 17.906v1.492h-1.953v2.238h-1.302v-2.238h-1.952v-1.492h1.952v-2.238h1.302v2.238h1.953zm0 17.905v1.493h-1.953v2.238h-1.302v-2.238h-1.952v-1.493h1.952v-2.238h1.302v2.238h1.953zm0 17.906v1.492h-1.953v2.238h-1.302v-2.238h-1.952v-1.492h1.952v-2.238h1.302v2.238h1.953zm0 17.906v1.492h-1.953v2.238h-1.302v-2.238h-1.952v-1.492h1.952v-2.239h1.302v2.239h1.953zm0 17.905v1.492h-1.953v2.239h-1.302v-2.239h-1.952v-1.492h1.952v-2.238h1.302v2.238h1.953zm0 17.906v1.492h-1.953v2.238h-1.302v-2.238h-1.952v-1.492h1.952v-2.238h1.302v2.238h1.953zm0 17.905v1.492h-1.953v2.239h-1.302v-2.239h-1.952v-1.492h1.952v-2.238h1.302v2.238h1.953zm0 17.906v1.492h-1.953v2.238h-1.302v-2.238h-1.952v-1.492h1.952v-2.238h1.302v2.238h1.953zm0 17.906v1.492h-1.953v2.238h-1.302v-2.238h-1.952v-1.492h1.952v-2.239h1.302v2.239h1.953zm0 17.905v1.492h-1.953v2.238h-1.302v-2.238h-1.952v-1.492h1.952v-2.238h1.302v2.238h1.953zM5.207 2.815v1.492H3.254v2.238H1.953V4.307H0V2.815h1.953V.577h1.301v2.238h1.953zm0 17.905v1.493H3.254v2.238H1.953v-2.238H0V20.72h1.953v-2.239h1.301v2.239h1.953zm0 17.906v1.492H3.254v2.238H1.953v-2.238H0v-1.492h1.953v-2.238h1.301v2.238h1.953zm0 17.906v1.492H3.254v2.238H1.953v-2.238H0v-1.492h1.953v-2.239h1.301v2.239h1.953zm0 17.905v1.492H3.254v2.239H1.953v-2.239H0v-1.492h1.953V72.2h1.301v2.238h1.953zm0 17.906v1.492H3.254v2.238H1.953v-2.238H0v-1.492h1.953v-2.238h1.301v2.238h1.953zm0 17.905v1.493H3.254v2.238H1.953v-2.238H0v-1.493h1.953v-2.238h1.301v2.238h1.953zm0 17.906v1.492H3.254v2.238H1.953v-2.238H0v-1.492h1.953v-2.238h1.301v2.238h1.953zm0 17.906v1.492H3.254v2.238H1.953v-2.238H0v-1.492h1.953v-2.239h1.301v2.239h1.953zm0 17.905v1.492H3.254v2.239H1.953v-2.239H0v-1.492h1.953v-2.238h1.301v2.238h1.953zm0 17.906v1.492H3.254v2.238H1.953v-2.238H0v-1.492h1.953v-2.238h1.301v2.238h1.953zm0 17.905v1.493H3.254v2.238H1.953v-2.238H0v-1.493h1.953v-2.238h1.301v2.238h1.953zm0 17.906v1.492H3.254v2.238H1.953v-2.238H0v-1.492h1.953v-2.238h1.301v2.238h1.953zm0 17.906v1.492H3.254v2.238H1.953v-2.238H0v-1.492h1.953v-2.239h1.301v2.239h1.953zm0 17.905v1.492H3.254v2.239H1.953v-2.239H0v-1.492h1.953v-2.238h1.301v2.238h1.953zm0 17.906v1.492H3.254v2.238H1.953v-2.238H0v-1.492h1.953v-2.238h1.301v2.238h1.953zm0 17.905v1.492H3.254v2.239H1.953v-2.239H0v-1.492h1.953v-2.238h1.301v2.238h1.953zm0 17.906v1.492H3.254v2.238H1.953v-2.238H0v-1.492h1.953v-2.238h1.301v2.238h1.953zm0 17.906v1.492H3.254v2.238H1.953v-2.238H0v-1.492h1.953v-2.239h1.301v2.239h1.953zm0 17.905v1.492H3.254v2.238H1.953v-2.238H0v-1.492h1.953v-2.238h1.301v2.238h1.953z" opacity=".1" fill="#295271"/></svg>